0
SECTION
2
HEADER
9
$INSUNITS
70
4
9
$ACADVER
1
AC1014
9
$HANDSEED
5
FFFF
0
ENDSEC
0
SECTION
2
TABLES
0
TABLE
2
VPORT
5
8
100
AcDbSymbolTable
0
ENDTAB
0
TABLE
2
LTYPE
5
5
100
AcDbSymbolTable
0
LTYPE
5
14
100
AcDbSymbolTableRecord
100
AcDbLinetypeTableRecord
2
BYBLOCK
70
0
0
LTYPE
5
15
100
AcDbSymbolTableRecord
100
AcDbLinetypeTableRecord
2
BYLAYER
70
0
0
ENDTAB
0
TABLE
2
LAYER
5
2
100
AcDbSymbolTable
70
2
0
LAYER
5
50
100
AcDbSymbolTableRecord
100
AcDbLayerTableRecord
2
0
70
0
6
CONTINUOUS
0
ENDTAB
0
TABLE
2
STYLE
5
3
100
AcDbSymbolTable
70
1
0
STYLE
5
11
100
AcDbSymbolTableRecord
100
AcDbTextStyleTableRecord
2
STANDARD
70
0
0
ENDTAB
0
TABLE
2
VIEW
5
6
100
AcDbSymbolTable
70
0
0
ENDTAB
0
TABLE
2
UCS
5
7
100
AcDbSymbolTable
70
0
0
ENDTAB
0
TABLE
2
APPID
5
9
100
AcDbSymbolTable
70
2
0
APPID
5
12
100
AcDbSymbolTableRecord
100
AcDbRegAppTableRecord
2
ACAD
70
0
0
ENDTAB
0
TABLE
2
DIMSTYLE
5
A
100
AcDbSymbolTable
70
1
0
ENDTAB
0
TABLE
2
BLOCK_RECORD
5
1
100
AcDbSymbolTable
70
1
0
BLOCK_RECORD
5
1F
100
AcDbSymbolTableRecord
100
AcDbBlockTableRecord
2
*MODEL_SPACE
0
BLOCK_RECORD
5
1B
100
AcDbSymbolTableRecord
100
AcDbBlockTableRecord
2
*PAPER_SPACE
0
ENDTAB
0
ENDSEC
0
SECTION
2
BLOCKS
0
BLOCK
5
20
100
AcDbEntity
100
AcDbBlockBegin
2
*MODEL_SPACE
0
ENDBLK
5
21
100
AcDbEntity
100
AcDbBlockEnd
0
BLOCK
5
1C
100
AcDbEntity
100
AcDbBlockBegin
2
*PAPER_SPACE
0
ENDBLK
5
1D
100
AcDbEntity
100
AcDbBlockEnd
0
ENDSEC
0
SECTION
2
ENTITIES
0
LINE
5
100
100
AcDbEntity
8
0
100
AcDbLine
10
-100
20
89
30
0
11
100
21
89
31
0
0
LINE
5
101
100
AcDbEntity
8
0
100
AcDbLine
10
100
20
89
30
0
11
100
21
-91
31
0
0
LINE
5
102
100
AcDbEntity
8
0
100
AcDbLine
10
100
20
-91
30
0
11
-100
21
-91
31
0
0
LINE
5
103
100
AcDbEntity
8
0
100
AcDbLine
10
-100
20
-91
30
0
11
-100
21
89
31
0
0
CIRCLE
5
104
100
AcDbEntity
8
0
100
AcDbCircle
10
9.2902771367647539
20
8.6589052877575874
30
0
40
2.828427166893039
0
CIRCLE
5
105
100
AcDbEntity
8
0
100
AcDbCircle
10
-9.2902782245495139
20
8.6589052877575874
30
1.1377308824806852e-15
40
2.828427166893039
0
CIRCLE
5
106
100
AcDbEntity
8
0
100
AcDbCircle
10
17.413596389218743
20
7.6975611533090422
30
0
40
2.3500000000000001
0
CIRCLE
5
107
100
AcDbEntity
8
0
100
AcDbCircle
10
-17.413597477003503
20
7.6975611533090422
30
2.1325505745776705e-15
40
2.3500000000000001
0
CIRCLE
5
108
100
AcDbEntity
8
0
100
AcDbCircle
10
-9.2902782245494642
20
-9.870605075441123
30
1.1377308824806793e-15
40
2.828427166893039
0
CIRCLE
5
109
100
AcDbEntity
8
0
100
AcDbCircle
10
17.426304983386039
20
-9.3189991431959189
30
0
40
2.3500000000000001
0
CIRCLE
5
110
100
AcDbEntity
8
0
100
AcDbCircle
10
9.2902771367647041
20
-9.870605075441123
30
0
40
2.828427166893039
0
CIRCLE
5
111
100
AcDbEntity
8
0
100
AcDbCircle
10
-17.426306071170799
20
-9.3189991431959189
30
2.1341069284945343e-15
40
2.3500000000000001
0
LWPOLYLINE
5
112
100
AcDbEntity
8
0
100
AcDbPolyline
90
4
70
1
43
0.0
10
38.500000000000007
20
89
10
-38.5
20
89
10
-38.5
20
34
10
38.500000000000007
20
34
0
LINE
5
113
100
AcDbEntity
8
0
100
AcDbLine
10
-100
20
37.5
30
0
11
-45
21
37.5
31
0
0
LINE
5
114
100
AcDbEntity
8
0
100
AcDbLine
10
-45
20
37.5
30
0
11
-45
21
-39.5
31
0
0
LINE
5
115
100
AcDbEntity
8
0
100
AcDbLine
10
-45
20
-39.5
30
0
11
-100
21
-39.5
31
0
0
LINE
5
116
100
AcDbEntity
8
0
100
AcDbLine
10
-100
20
-39.5
30
0
11
-100
21
37.5
31
0
0
LINE
5
117
100
AcDbEntity
8
0
100
AcDbLine
10
100
20
37.5
30
0
11
45
21
37.5
31
0
0
LINE
5
118
100
AcDbEntity
8
0
100
AcDbLine
10
45
20
37.5
30
0
11
45
21
-39.5
31
0
0
LINE
5
119
100
AcDbEntity
8
0
100
AcDbLine
10
45
20
-39.5
30
0
11
100
21
-39.5
31
0
0
LINE
5
120
100
AcDbEntity
8
0
100
AcDbLine
10
100
20
-39.5
30
0
11
100
21
37.5
31
0
0
CIRCLE
5
121
100
AcDbEntity
8
0
100
AcDbCircle
10
-19.301779646935938
20
-47.051595400508283
30
0
40
1.7051059632478571
0
CIRCLE
5
122
100
AcDbEntity
8
0
100
AcDbCircle
10
17.678577385778119
20
-47.085615968155558
30
0
40
1.7051059632478571
0
CIRCLE
5
123
100
AcDbEntity
8
0
100
AcDbCircle
10
-19.237929947021822
20
-83.35835423213959
30
0
40
1.7051059632478571
0
CIRCLE
5
124
100
AcDbEntity
8
0
100
AcDbCircle
10
17.717049545854188
20
-83.326109950396926
30
0
40
1.7051059632478571
0
LINE
5
125
100
AcDbEntity
8
0
100
AcDbLine
10
36.499999456107624
20
-90.999998673796654
30
0
11
-5.4389238002272577e-07
21
-90.999998673796654
31
0
0
LINE
5
126
100
AcDbEntity
8
0
100
AcDbLine
10
-36.500000543892384
20
-90.999998673796654
30
4.4699608168878408e-15
11
-5.4389238002272577e-07
21
-90.999998673796654
31
0
0
LINE
5
127
100
AcDbEntity
8
0
100
AcDbLine
10
-36.500000543892384
20
-90.999998673796654
30
4.4699608168878408e-15
11
-5.4389238002272577e-07
21
-90.999998673796654
31
0
0
LINE
5
128
100
AcDbEntity
8
0
100
AcDbLine
10
-36.500000543892384
20
-90.999998673796654
30
4.4699608168878408e-15
11
-5.4389238002272577e-07
21
-90.999998673796654
31
0
0
LINE
5
129
100
AcDbEntity
8
0
100
AcDbLine
10
36.499999456107624
20
-90.999998673796654
30
0
11
-5.4389238002272577e-07
21
-90.999998673796654
31
0
0
LINE
5
130
100
AcDbEntity
8
0
100
AcDbLine
10
36.499999456107624
20
-90.999998673796654
30
0
11
-5.4389238002272577e-07
21
-90.999998673796654
31
0
0
LINE
5
131
100
AcDbEntity
8
0
100
AcDbLine
10
36.499999456107624
20
-90.999998673796654
30
0
11
-5.4389238002272577e-07
21
-90.999998673796654
31
0
0
LINE
5
132
100
AcDbEntity
8
0
100
AcDbLine
10
36.499999456107624
20
-90.999998673796654
30
0
11
-5.4389238002272577e-07
21
-90.999998673796654
31
0
0
LINE
5
133
100
AcDbEntity
8
0
100
AcDbLine
10
36.499999456107624
20
-90.999998673796654
30
0
11
-5.4389238002272577e-07
21
-90.999998673796654
31
0
0
LINE
5
134
100
AcDbEntity
8
0
100
AcDbLine
10
36.499999456107624
20
-90.999998673796654
30
0
11
-5.4389238002272577e-07
21
-90.999998673796654
31
0
0
LINE
5
135
100
AcDbEntity
8
0
100
AcDbLine
10
36.499999456107624
20
-90.999998673796654
30
0
11
-5.4389238002272577e-07
21
-90.999998673796654
31
0
0
LINE
5
136
100
AcDbEntity
8
0
100
AcDbLine
10
-36.500000543892384
20
-90.999998673796654
30
4.4699608168878408e-15
11
-5.4389238002272577e-07
21
-90.999998673796654
31
0
0
LINE
5
137
100
AcDbEntity
8
0
100
AcDbLine
10
36.499999456107624
20
-90.999998673796654
30
0
11
-5.4389238002272577e-07
21
-90.999998673796654
31
0
0
LINE
5
138
100
AcDbEntity
8
0
100
AcDbLine
10
-36.500000543892384
20
-90.999998673796654
30
4.4699608168878408e-15
11
-5.4389238002272577e-07
21
-90.999998673796654
31
0
0
LINE
5
139
100
AcDbEntity
8
0
100
AcDbLine
10
-36.500000543892384
20
-90.999998673796654
30
4.4699608168878408e-15
11
-5.4389238002272577e-07
21
-90.999998673796654
31
0
0
LINE
5
140
100
AcDbEntity
8
0
100
AcDbLine
10
-36.500000543892384
20
-90.999998673796654
30
4.4699608168878408e-15
11
-5.4389238002272577e-07
21
-90.999998673796654
31
0
0
LINE
5
141
100
AcDbEntity
8
0
100
AcDbLine
10
-36.500000543892384
20
-90.999998673796654
30
4.4699608168878408e-15
11
-5.4389238002272577e-07
21
-90.999998673796654
31
0
0
LINE
5
142
100
AcDbEntity
8
0
100
AcDbLine
10
-36.500000543892384
20
-90.999998673796654
30
4.4699608168878408e-15
11
-5.4389238002272577e-07
21
-90.999998673796654
31
0
0
LINE
5
143
100
AcDbEntity
8
0
100
AcDbLine
10
-36.500000543892384
20
-90.999998673796654
30
4.4699608168878408e-15
11
-5.4389238002272577e-07
21
-90.999998673796654
31
0
0
LINE
5
144
100
AcDbEntity
8
0
100
AcDbLine
10
36.499999456107624
20
-90.999998673796654
30
0
11
-5.4389238002272577e-07
21
-90.999998673796654
31
0
0
LINE
5
145
100
AcDbEntity
8
0
100
AcDbLine
10
-36.500000543892384
20
-90.999998673796654
30
4.4699608168878408e-15
11
-5.4389238002272577e-07
21
-90.999998673796654
31
0
0
LINE
5
146
100
AcDbEntity
8
0
100
AcDbLine
10
36.499999456107624
20
-90.999998673796654
30
0
11
-5.4389238002272577e-07
21
-90.999998673796654
31
0
0
LINE
5
147
100
AcDbEntity
8
0
100
AcDbLine
10
36.499999456107624
20
-90.999998673796654
30
0
11
-5.4389238002272577e-07
21
-90.999998673796654
31
0
0
LINE
5
148
100
AcDbEntity
8
0
100
AcDbLine
10
36.499999456107624
20
-90.999998673796654
30
0
11
-5.4389238002272577e-07
21
-90.999998673796654
31
0
0
LINE
5
149
100
AcDbEntity
8
0
100
AcDbLine
10
-36.500000543892384
20
-90.999998673796654
30
4.4699608168878408e-15
11
-5.4389238002272577e-07
21
-90.999998673796654
31
0
0
LINE
5
150
100
AcDbEntity
8
0
100
AcDbLine
10
-36.500000543892384
20
-90.999998673796654
30
4.4699608168878408e-15
11
-5.4389238002272577e-07
21
-90.999998673796654
31
0
0
LINE
5
151
100
AcDbEntity
8
0
100
AcDbLine
10
36.499999456107624
20
-90.999998673796654
30
0
11
-5.4389238002272577e-07
21
-90.999998673796654
31
0
0
LINE
5
152
100
AcDbEntity
8
0
100
AcDbLine
10
36.499999456107624
20
-90.999998673796654
30
0
11
-5.4389238002272577e-07
21
-90.999998673796654
31
0
0
LINE
5
153
100
AcDbEntity
8
0
100
AcDbLine
10
36.499999456107624
20
-90.999998673796654
30
0
11
-5.4389238002272577e-07
21
-90.999998673796654
31
0
0
LINE
5
154
100
AcDbEntity
8
0
100
AcDbLine
10
-36.500000543892384
20
-90.999998673796654
30
4.4699608168878408e-15
11
-5.4389238002272577e-07
21
-90.999998673796654
31
0
0
LWPOLYLINE
5
155
100
AcDbEntity
8
0
100
AcDbPolyline
90
4
70
1
43
0.0
10
-36.478751604181582
20
-90.9570631282878
10
36.521248395818425
20
-90.9570631282878
10
36.521248395818425
20
-59.9570631282878
10
-36.478751604181582
20
-59.9570631282878
0
CIRCLE
5
156
100
AcDbEntity
8
0
100
AcDbCircle
10
9.0212483958184251
20
-65.142063383318302
30
0
40
2.1500000000000004
0
CIRCLE
5
157
100
AcDbEntity
8
0
100
AcDbCircle
10
9.0212483958184251
20
-85.772063383318311
30
0
40
2.1500000000000004
0
CIRCLE
5
158
100
AcDbEntity
8
0
100
AcDbCircle
10
-8.978751604181582
20
-65.141930383318254
30
0
40
2.1500000000000004
0
LWPOLYLINE
5
159
100
AcDbEntity
8
0
100
AcDbPolyline
90
4
70
1
43
0.0
10
30.39124839581843
20
-88.862063128287787
10
30.39124839581843
20
-62.047063128287796
10
33.021248395818425
20
-62.047063128287796
10
33.021248395818425
20
-88.862063128287787
0
LWPOLYLINE
5
160
100
AcDbEntity
8
0
100
AcDbPolyline
90
4
70
1
43
0.0
10
5.5212490216671881
20
-88.957063560421474
10
5.5212490216671881
20
-61.998928613042246
10
-5.478751142245585
20
-61.998928613042246
10
-5.478751142245585
20
-88.957063560421474
0
LWPOLYLINE
5
161
100
AcDbEntity
8
0
100
AcDbPolyline
90
4
70
1
43
0.0
10
-33.87547475204596
20
-62.047063128287796
10
-31.24547475204594
20
-62.047063128287796
10
-31.24547475204594
20
-88.862063128287787
10
-33.87547475204596
20
-88.862063128287787
0
LINE
5
162
100
AcDbEntity
8
0
100
AcDbLine
10
-36.500000543892384
20
-90.999998673796654
30
4.4699608168878408e-15
11
-5.4389238002272577e-07
21
-90.999998673796654
31
0
0
LINE
5
163
100
AcDbEntity
8
0
100
AcDbLine
10
-12.037301641785723
20
-59.9570631282878
30
0
11
-12.037301641785723
21
-90.9570631282878
31
0
0
LINE
5
164
100
AcDbEntity
8
0
100
AcDbLine
10
12.006116006119143
20
-59.9570631282878
30
0
11
12.006116006119143
21
-90.9570631282878
31
0
0
CIRCLE
5
165
100
AcDbEntity
8
0
100
AcDbCircle
10
-8.978751604181582
20
-65.141930383318254
30
0
40
2.1500000000000004
0
CIRCLE
5
166
100
AcDbEntity
8
0
100
AcDbCircle
10
-8.9787516041816176
20
-85.772063128287797
30
0
40
2.1500000000000004
0
LINE
5
167
100
AcDbEntity
8
0
100
AcDbLine
10
-36.500000543892384
20
-90.999998673796654
30
4.4699608168878408e-15
11
-5.4389238002272577e-07
21
-90.999998673796654
31
0
0
CIRCLE
5
168
100
AcDbEntity
8
0
100
AcDbCircle
10
-27.057803085617568
20
-31.122914901635724
30
0
40
1.3749999999999987
0
CIRCLE
5
169
100
AcDbEntity
8
0
100
AcDbCircle
10
21.759349678917847
20
26.637087498042003
30
0
40
1.3749999999999987
0
CIRCLE
5
170
100
AcDbEntity
8
0
100
AcDbCircle
10
21.770640405108331
20
-31.127809519649105
30
0
40
1.3749999999999987
0
CIRCLE
5
171
100
AcDbEntity
8
0
100
AcDbCircle
10
-27.063805170083221
20
26.631998431858037
30
0
40
1.3749999999999987
0
LWPOLYLINE
5
172
100
AcDbEntity
8
0
100
AcDbPolyline
90
4
70
1
43
0.0
10
-35
20
5
10
-40
20
5
10
-40
20
-10
10
-35
20
-10
0
LWPOLYLINE
5
173
100
AcDbEntity
8
0
100
AcDbPolyline
90
4
70
1
43
0.0
10
35
20
5
10
35
20
-10
10
40
20
-10
10
40
20
5
0
LWPOLYLINE
5
174
100
AcDbEntity
8
0
100
AcDbPolyline
90
4
70
1
43
0.0
10
5
20
30
10
-10
20
30
10
-10
20
25
10
5
20
25
0
LWPOLYLINE
5
175
100
AcDbEntity
8
0
100
AcDbPolyline
90
4
70
1
43
0.0
10
30
20
30
10
-35
20
30
10
-35
20
-35
10
30
20
-35
0
LWPOLYLINE
5
176
100
AcDbEntity
8
0
100
AcDbPolyline
90
4
70
1
43
0.0
10
-25
20
20
10
-35
20
20
10
-35
20
-28.053689103229623
10
-25
20
-28.053689103229623
0
LINE
5
177
100
AcDbEntity
8
0
100
AcDbLine
10
45
20
-39.5
30
0
11
100
21
-39.5
31
0
0
LINE
5
178
100
AcDbEntity
8
0
100
AcDbLine
10
100
20
-39.5
30
0
11
100
21
-91
31
0
0
LINE
5
179
100
AcDbEntity
8
0
100
AcDbLine
10
100
20
-91
30
0
11
45
21
-91
31
0
0
LINE
5
180
100
AcDbEntity
8
0
100
AcDbLine
10
45
20
-91
30
0
11
45
21
-39.5
31
0
0
LINE
5
181
100
AcDbEntity
8
0
100
AcDbLine
10
-45
20
-39.5
30
0
11
-100
21
-39.5
31
0
0
LINE
5
182
100
AcDbEntity
8
0
100
AcDbLine
10
-100
20
-39.5
30
0
11
-100
21
-91
31
0
0
LINE
5
183
100
AcDbEntity
8
0
100
AcDbLine
10
-100
20
-91
30
0
11
-45
21
-91
31
0
0
LINE
5
184
100
AcDbEntity
8
0
100
AcDbLine
10
-45
20
-91
30
0
11
-45
21
-39.5
31
0
0
ENDSEC
0
SECTION
2
OBJECTS
0
DICTIONARY
5
C
100
AcDbDictionary
3
ACAD_GROUP
350
D
3
ACAD_MLINESTYLE
350
17
0
DICTIONARY
5
D
100
AcDbDictionary
0
DICTIONARY
5
1A
330
C
100
AcDbDictionary
0
DICTIONARY
5
17
100
AcDbDictionary
0
ENDSEC
0
EOF
