  0
SECTION
  2
HEADER
  9
$ACADVER
  1
AC1014
  9
$HANDSEED
  5
FFFF
  9
$MEASUREMENT
 70
     1
  0
ENDSEC
  0
SECTION
  2
TABLES
  0
TABLE
  2
VPORT
  5
8
330
0
100
AcDbSymbolTable
 70
     4
  0
VPORT
  5
2E
330
8
100
AcDbSymbolTableRecord
100
AcDbViewportTableRecord
  2
*ACTIVE
 70
     0
 10
0.0
 20
0.0
 11
1.0
 21
1.0
 12
210.0
 22
148.5
 13
0.0
 23
0.0
 14
10.0
 24
10.0
 15
10.0
 25
10.0
 16
0.0
 26
0.0
 36
1.0
 17
0.0
 27
0.0
 37
0.0
 40
341.0
 41
1.24
 42
50.0
 43
0.0
 44
0.0
 50
0.0
 51
0.0
 71
     0
 72
   100
 73
     1
 74
     3
 75
     0
 76
     0
 77
     0
 78
     0
  0
ENDTAB
  0
TABLE
  2
LTYPE
  5
5
330
0
100
AcDbSymbolTable
 70
     1
  0
LTYPE
  5
14
330
5
100
AcDbSymbolTableRecord
100
AcDbLinetypeTableRecord
  2
BYBLOCK
 70
     0
  3

 72
    65
 73
     0
 40
0.0
  0
LTYPE
  5
15
330
5
100
AcDbSymbolTableRecord
100
AcDbLinetypeTableRecord
  2
BYLAYER
 70
     0
  3

 72
    65
 73
     0
 40
0.0
  0
LTYPE
  5
16
330
5
100
AcDbSymbolTableRecord
100
AcDbLinetypeTableRecord
  2
CONTINUOUS
 70
     0
  3
Solid line
 72
    65
 73
     0
 40
0.0
  0
ENDTAB
  0
TABLE
  2
LAYER
  5
2
100
AcDbSymbolTable
 70
1
  0
LAYER
  5
50
100
AcDbSymbolTableRecord
100
AcDbLayerTableRecord
  2
0
 70
0
  6
CONTINUOUS
  0
ENDTAB
  0
TABLE
  2
STYLE
  5
3
330
0
100
AcDbSymbolTable
 70
     1
  0
STYLE
  5
11
330
3
100
AcDbSymbolTableRecord
100
AcDbTextStyleTableRecord
  2
STANDARD
 70
     0
 40
0.0
 41
1.0
 50
0.0
 71
     0
 42
2.5
  3
txt
  4

  0
ENDTAB
  0
TABLE
  2
VIEW
  5
6
330
0
100
AcDbSymbolTable
 70
     0
  0
ENDTAB
  0
TABLE
  2
UCS
  5
7
330
0
100
AcDbSymbolTable
 70
     0
  0
ENDTAB
  0
TABLE
  2
APPID
  5
9
330
0
100
AcDbSymbolTable
 70
     2
  0
APPID
  5
12
330
9
100
AcDbSymbolTableRecord
100
AcDbRegAppTableRecord
  2
ACAD
 70
     0
  0
ENDTAB
  0
TABLE
  2
DIMSTYLE
  5
A
330
0
100
AcDbSymbolTable
 70
     1
  0
DIMSTYLE
105
27
330
A
100
AcDbSymbolTableRecord
100
AcDbDimStyleTableRecord
  2
ISO-25
 70
     0
  3

  4

  5

  6

  7

 40
1.0
 41
2.5
 42
0.625
 43
3.75
 44
1.25
 45
0.0
 46
0.0
 47
0.0
 48
0.0
140
2.5
141
2.5
142
0.0
143
0.03937007874016
144
1.0
145
0.0
146
1.0
147
0.625
 71
     0
 72
     0
 73
     0
 74
     0
 75
     0
 76
     0
 77
     1
 78
     8
170
     0
171
     3
172
     1
173
     0
174
     0
175
     0
176
     0
177
     0
178
     0
270
     2
271
     2
272
     2
273
     2
274
     3
340
11
275
     0
280
     0
281
     0
282
     0
283
     0
284
     8
285
     0
286
     0
287
     3
288
     0
  0
ENDTAB
  0
TABLE
  2
BLOCK_RECORD
  5
1
330
0
100
AcDbSymbolTable
 70
     1
  0
BLOCK_RECORD
  5
1F
330
1
100
AcDbSymbolTableRecord
100
AcDbBlockTableRecord
  2
*MODEL_SPACE
  0
BLOCK_RECORD
  5
1B
330
1
100
AcDbSymbolTableRecord
100
AcDbBlockTableRecord
  2
*PAPER_SPACE
  0
ENDTAB
  0
ENDSEC
  0
SECTION
  2
BLOCKS
  0
BLOCK
  5
20
330
1F
100
AcDbEntity
  8
0
100
AcDbBlockBegin
  2
*MODEL_SPACE
 70
     0
 10
0.0
 20
0.0
 30
0.0
  3
*MODEL_SPACE
  1

  0
ENDBLK
  5
21
330
1F
100
AcDbEntity
  8
0
100
AcDbBlockEnd
  0
BLOCK
  5
1C
330
1B
100
AcDbEntity
 67
     1
  8
0
100
AcDbBlockBegin
  2
*PAPER_SPACE
  1

  0
ENDBLK
  5
1D
330
1B
100
AcDbEntity
 67
     1
  8
0
100
AcDbBlockEnd
  0
ENDSEC
  0
SECTION
  2
ENTITIES
  0
LWPOLYLINE
  5
100
100
AcDbEntity
  8
0
 62
7
100
AcDbPolyline
 90
4
 70
0
 10
47.654235
 20
311.726548
 30
0.0
 10
86.587570
 20
311.726548
 30
0.0
 10
86.587570
 20
119.726548
 30
0.0
 10
47.654235
 20
119.726548
 30
0.0
  0
LWPOLYLINE
  5
101
100
AcDbEntity
  8
0
 62
7
100
AcDbPolyline
 90
2
 70
0
 10
47.654235
 20
311.726548
 30
0.0
 10
86.587570
 20
311.726548
 30
0.0
  0
LWPOLYLINE
  5
102
100
AcDbEntity
  8
0
 62
7
100
AcDbPolyline
 90
2
 70
0
 10
86.587570
 20
119.726548
 30
0.0
 10
47.654235
 20
119.726548
 30
0.0
  0
LWPOLYLINE
  5
103
100
AcDbEntity
  8
0
 62
7
100
AcDbPolyline
 90
2
 70
0
 10
86.587570
 20
311.726548
 30
0.0
 10
86.587570
 20
119.726548
 30
0.0
  0
LWPOLYLINE
  5
104
100
AcDbEntity
  8
0
 62
7
100
AcDbPolyline
 90
2
 70
0
 10
86.587570
 20
311.726548
 30
0.0
 10
86.587570
 20
119.726548
 30
0.0
  0
LWPOLYLINE
  5
105
100
AcDbEntity
  8
0
 62
7
100
AcDbPolyline
 90
2
 70
0
 10
47.654235
 20
311.726548
 30
0.0
 10
86.587570
 20
311.726548
 30
0.0
  0
LWPOLYLINE
  5
106
100
AcDbEntity
  8
0
 62
7
100
AcDbPolyline
 90
2
 70
0
 10
86.587570
 20
119.726548
 30
0.0
 10
47.654235
 20
119.726548
 30
0.0
  0
LWPOLYLINE
  5
107
100
AcDbEntity
  8
0
 62
7
100
AcDbPolyline
 90
4
 70
0
 10
47.654235
 20
311.726548
 30
0.0
 10
86.587570
 20
311.726548
 30
0.0
 10
86.587570
 20
119.726548
 30
0.0
 10
47.654235
 20
119.726548
 30
0.0
  0
LWPOLYLINE
  5
108
100
AcDbEntity
  8
0
 62
7
100
AcDbPolyline
 90
2
 70
0
 10
47.654235
 20
311.726548
 30
0.0
 10
86.587570
 20
311.726548
 30
0.0
  0
LWPOLYLINE
  5
109
100
AcDbEntity
  8
0
 62
7
100
AcDbPolyline
 90
2
 70
0
 10
86.587570
 20
119.726548
 30
0.0
 10
47.654235
 20
119.726548
 30
0.0
  0
LWPOLYLINE
  5
10a
100
AcDbEntity
  8
0
 62
7
100
AcDbPolyline
 90
2
 70
0
 10
47.654235
 20
311.726548
 30
0.0
 10
86.587570
 20
311.726548
 30
0.0
  0
LWPOLYLINE
  5
10b
100
AcDbEntity
  8
0
 62
7
100
AcDbPolyline
 90
2
 70
0
 10
86.587570
 20
119.726548
 30
0.0
 10
47.654235
 20
119.726548
 30
0.0
  0
LWPOLYLINE
  5
10c
100
AcDbEntity
  8
0
 62
7
100
AcDbPolyline
 90
2
 70
0
 10
86.587570
 20
119.726548
 30
0.0
 10
47.654235
 20
119.726548
 30
0.0
  0
LWPOLYLINE
  5
10d
100
AcDbEntity
  8
0
 62
7
100
AcDbPolyline
 90
2
 70
0
 10
47.654235
 20
311.726548
 30
0.0
 10
86.587570
 20
311.726548
 30
0.0
  0
LWPOLYLINE
  5
10e
100
AcDbEntity
  8
0
 62
7
100
AcDbPolyline
 90
2
 70
0
 10
86.587570
 20
119.726548
 30
0.0
 10
47.654235
 20
119.726548
 30
0.0
  0
LWPOLYLINE
  5
10f
100
AcDbEntity
  8
0
 62
7
100
AcDbPolyline
 90
3
 70
0
 10
47.654235
 20
311.726548
 30
0.0
 10
86.587570
 20
311.726548
 30
0.0
 10
86.587570
 20
119.726548
 30
0.0
  0
LWPOLYLINE
  5
110
100
AcDbEntity
  8
0
 62
7
100
AcDbPolyline
 90
2
 70
0
 10
86.587570
 20
311.726548
 30
0.0
 10
86.587570
 20
119.726548
 30
0.0
  0
LWPOLYLINE
  5
111
100
AcDbEntity
  8
0
 62
7
100
AcDbPolyline
 90
2
 70
0
 10
86.587570
 20
311.726548
 30
0.0
 10
86.587570
 20
119.726548
 30
0.0
  0
LWPOLYLINE
  5
112
100
AcDbEntity
  8
0
 62
7
100
AcDbPolyline
 90
2
 70
0
 10
86.587570
 20
311.726548
 30
0.0
 10
86.587570
 20
119.726548
 30
0.0
  0
LWPOLYLINE
  5
113
100
AcDbEntity
  8
0
 62
7
100
AcDbPolyline
 90
2
 70
0
 10
86.587570
 20
311.726548
 30
0.0
 10
86.587570
 20
119.726548
 30
0.0
  0
LWPOLYLINE
  5
114
100
AcDbEntity
  8
0
 62
7
100
AcDbPolyline
 90
2
 70
0
 10
86.587570
 20
311.726548
 30
0.0
 10
86.587570
 20
119.726548
 30
0.0
  0
LWPOLYLINE
  5
115
100
AcDbEntity
  8
0
 62
7
100
AcDbPolyline
 90
2
 70
0
 10
86.587570
 20
311.726548
 30
0.0
 10
86.587570
 20
119.726548
 30
0.0
  0
LWPOLYLINE
  5
116
100
AcDbEntity
  8
0
 62
7
100
AcDbPolyline
 90
3
 70
0
 10
86.587570
 20
311.726548
 30
0.0
 10
86.587570
 20
119.726548
 30
0.0
 10
47.654235
 20
119.726548
 30
0.0
  0
LWPOLYLINE
  5
117
100
AcDbEntity
  8
0
 62
7
100
AcDbPolyline
 90
2
 70
0
 10
86.587570
 20
119.726548
 30
0.0
 10
47.654235
 20
119.726548
 30
0.0
  0
LWPOLYLINE
  5
118
100
AcDbEntity
  8
0
 62
7
100
AcDbPolyline
 90
2
 70
0
 10
86.587570
 20
119.726548
 30
0.0
 10
47.654235
 20
119.726548
 30
0.0
  0
LWPOLYLINE
  5
119
100
AcDbEntity
  8
0
 62
7
100
AcDbPolyline
 90
2
 70
0
 10
86.587570
 20
119.726548
 30
0.0
 10
47.654235
 20
119.726548
 30
0.0
  0
LWPOLYLINE
  5
11a
100
AcDbEntity
  8
0
 62
7
100
AcDbPolyline
 90
2
 70
0
 10
86.587570
 20
119.726548
 30
0.0
 10
47.654235
 20
119.726548
 30
0.0
  0
LWPOLYLINE
  5
11b
100
AcDbEntity
  8
0
 62
7
100
AcDbPolyline
 90
2
 70
0
 10
86.587570
 20
311.726548
 30
0.0
 10
86.587570
 20
119.726548
 30
0.0
  0
LWPOLYLINE
  5
11c
100
AcDbEntity
  8
0
 62
7
100
AcDbPolyline
 90
2
 70
0
 10
86.587570
 20
311.726548
 30
0.0
 10
86.587570
 20
119.726548
 30
0.0
  0
LWPOLYLINE
  5
11d
100
AcDbEntity
  8
0
 62
7
100
AcDbPolyline
 90
2
 70
0
 10
86.587570
 20
311.726548
 30
0.0
 10
86.587570
 20
119.726548
 30
0.0
  0
LWPOLYLINE
  5
11e
100
AcDbEntity
  8
0
 62
7
100
AcDbPolyline
 90
3
 70
0
 10
86.587570
 20
311.726548
 30
0.0
 10
86.587570
 20
119.726548
 30
0.0
 10
47.654235
 20
119.726548
 30
0.0
  0
LWPOLYLINE
  5
11f
100
AcDbEntity
  8
0
 62
7
100
AcDbPolyline
 90
2
 70
0
 10
47.654235
 20
311.726548
 30
0.0
 10
86.587570
 20
311.726548
 30
0.0
  0
LWPOLYLINE
  5
120
100
AcDbEntity
  8
0
 62
7
100
AcDbPolyline
 90
2
 70
0
 10
47.654235
 20
311.726548
 30
0.0
 10
86.587570
 20
311.726548
 30
0.0
  0
LWPOLYLINE
  5
121
100
AcDbEntity
  8
0
 62
7
100
AcDbPolyline
 90
2
 70
0
 10
47.654235
 20
311.726548
 30
0.0
 10
86.587570
 20
311.726548
 30
0.0
  0
LWPOLYLINE
  5
122
100
AcDbEntity
  8
0
 62
7
100
AcDbPolyline
 90
2
 70
0
 10
86.587570
 20
119.726548
 30
0.0
 10
47.654235
 20
119.726548
 30
0.0
  0
LWPOLYLINE
  5
123
100
AcDbEntity
  8
0
 62
7
100
AcDbPolyline
 90
2
 70
0
 10
47.654235
 20
311.726548
 30
0.0
 10
86.587570
 20
311.726548
 30
0.0
  0
LWPOLYLINE
  5
124
100
AcDbEntity
  8
0
 62
7
100
AcDbPolyline
 90
2
 70
0
 10
47.654235
 20
311.726548
 30
0.0
 10
86.587570
 20
311.726548
 30
0.0
  0
LWPOLYLINE
  5
125
100
AcDbEntity
  8
0
 62
7
100
AcDbPolyline
 90
2
 70
0
 10
47.654235
 20
311.726548
 30
0.0
 10
86.587570
 20
311.726548
 30
0.0
  0
SPLINE
  5
126
100
AcDbEntity
  8
0
 62
7
100
AcDbSpline
 70
0
 71
3
 72
16
 73
12
 74
10
 40
0.000000
 40
0.000000
 40
0.000000
 40
0.000000
 40
1.098492
 40
2.181252
 40
3.279744
 40
4.378236
 40
5.460995
 40
6.559488
 40
7.657980
 40
8.740739
 40
9.839231
 40
9.839231
 40
9.839231
 40
9.839231
 10
69.375407
 20
225.003946
 30
0.0
 10
69.338002
 20
225.372001
 30
0.0
 10
69.263729
 20
226.102841
 30
0.0
 10
68.684675
 20
227.068845
 30
0.0
 10
67.836524
 20
227.787095
 30
0.0
 10
66.785907
 20
228.168051
 30
0.0
 10
65.671574
 20
228.168051
 30
0.0
 10
64.620957
 20
227.787095
 30
0.0
 10
63.772806
 20
227.068845
 30
0.0
 10
63.193752
 20
226.102841
 30
0.0
 10
63.119479
 20
225.372001
 30
0.0
 10
63.082074
 20
225.003946
 30
0.0
 11
69.375407
 21
225.003946
 31
0.0
 11
69.184359
 21
226.085697
 31
0.0
 11
68.643354
 21
227.023610
 31
0.0
 11
67.802618
 21
227.730610
 31
0.0
 11
66.770120
 21
228.105621
 31
0.0
 11
65.687361
 21
228.105621
 31
0.0
 11
64.654863
 21
227.730610
 31
0.0
 11
63.814127
 21
227.023610
 31
0.0
 11
63.273122
 21
226.085697
 31
0.0
 11
63.082074
 21
225.003946
 31
0.0
  0
LWPOLYLINE
  5
127
100
AcDbEntity
  8
0
 62
7
100
AcDbPolyline
 90
2
 70
0
 10
47.654235
 20
311.726548
 30
0.0
 10
86.587570
 20
311.726548
 30
0.0
  0
SPLINE
  5
128
100
AcDbEntity
  8
0
 62
7
100
AcDbSpline
 70
0
 71
3
 72
16
 73
12
 74
10
 40
0.000000
 40
0.000000
 40
0.000000
 40
0.000000
 40
1.098492
 40
2.181252
 40
3.279744
 40
4.378236
 40
5.460995
 40
6.559488
 40
7.657980
 40
8.740739
 40
9.839231
 40
9.839231
 40
9.839231
 40
9.839231
 10
63.082074
 20
225.003946
 30
0.0
 10
63.119479
 20
224.635890
 30
0.0
 10
63.193752
 20
223.905051
 30
0.0
 10
63.772806
 20
222.939046
 30
0.0
 10
64.620957
 20
222.220796
 30
0.0
 10
65.671574
 20
221.839840
 30
0.0
 10
66.785907
 20
221.839840
 30
0.0
 10
67.836524
 20
222.220796
 30
0.0
 10
68.684675
 20
222.939046
 30
0.0
 10
69.263729
 20
223.905051
 30
0.0
 10
69.338002
 20
224.635890
 30
0.0
 10
69.375407
 20
225.003946
 30
0.0
 11
63.082074
 21
225.003946
 31
0.0
 11
63.273122
 21
223.922194
 31
0.0
 11
63.814127
 21
222.984281
 31
0.0
 11
64.654863
 21
222.277282
 31
0.0
 11
65.687361
 21
221.902270
 31
0.0
 11
66.770120
 21
221.902270
 31
0.0
 11
67.802618
 21
222.277282
 31
0.0
 11
68.643354
 21
222.984281
 31
0.0
 11
69.184359
 21
223.922194
 31
0.0
 11
69.375407
 21
225.003946
 31
0.0
  0
SPLINE
  5
129
100
AcDbEntity
  8
0
 62
7
100
AcDbSpline
 70
0
 71
3
 72
16
 73
12
 74
10
 40
0.000000
 40
0.000000
 40
0.000000
 40
0.000000
 40
1.053322
 40
2.091557
 40
3.144879
 40
4.198201
 40
5.236436
 40
6.289758
 40
7.343081
 40
8.381315
 40
9.434637
 40
9.434637
 40
9.434637
 40
9.434637
 10
60.580854
 20
206.264568
 30
0.0
 10
60.545037
 20
206.617495
 30
0.0
 10
60.473916
 20
207.318293
 30
0.0
 10
59.918762
 20
208.244635
 30
0.0
 10
59.105531
 20
208.933407
 30
0.0
 10
58.098124
 20
209.298732
 30
0.0
 10
57.029608
 20
209.298732
 30
0.0
 10
56.022201
 20
208.933407
 30
0.0
 10
55.208970
 20
208.244635
 30
0.0
 10
54.653816
 20
207.318293
 30
0.0
 10
54.582695
 20
206.617495
 30
0.0
 10
54.546878
 20
206.264568
 30
0.0
 11
60.580854
 21
206.264568
 31
0.0
 11
60.397801
 21
207.301862
 31
0.0
 11
59.879133
 21
208.201259
 31
0.0
 11
59.073013
 21
208.879240
 31
0.0
 11
58.082983
 21
209.238864
 31
0.0
 11
57.044749
 21
209.238864
 31
0.0
 11
56.054719
 21
208.879240
 31
0.0
 11
55.248600
 21
208.201259
 31
0.0
 11
54.729932
 21
207.301862
 31
0.0
 11
54.546878
 21
206.264568
 31
0.0
  0
LWPOLYLINE
  5
12a
100
AcDbEntity
  8
0
 62
7
100
AcDbPolyline
 90
1
 70
1
 10
69.375407
 20
225.003946
 30
0.0
  0
SPLINE
  5
12b
100
AcDbEntity
  8
0
 62
7
100
AcDbSpline
 70
0
 71
3
 72
16
 73
12
 74
10
 40
0.000000
 40
0.000000
 40
0.000000
 40
0.000000
 40
1.053400
 40
2.091709
 40
3.145109
 40
4.198509
 40
5.236818
 40
6.290218
 40
7.343618
 40
8.381927
 40
9.435327
 40
9.435327
 40
9.435327
 40
9.435327
 10
54.546878
 20
206.264568
 30
0.0
 10
54.582660
 20
205.911611
 30
0.0
 10
54.653710
 20
205.210753
 30
0.0
 10
55.208837
 20
204.284296
 30
0.0
 10
56.022093
 20
203.595431
 30
0.0
 10
57.029568
 20
203.230051
 30
0.0
 10
58.098165
 20
203.230051
 30
0.0
 10
59.105639
 20
203.595431
 30
0.0
 10
59.918896
 20
204.284296
 30
0.0
 10
60.474022
 20
205.210753
 30
0.0
 10
60.545073
 20
205.911611
 30
0.0
 10
60.580854
 20
206.264568
 30
0.0
 11
54.546878
 21
206.264568
 31
0.0
 11
54.729839
 21
205.227178
 31
0.0
 11
55.248474
 21
204.327677
 31
0.0
 11
56.054618
 21
203.649604
 31
0.0
 11
57.044712
 21
203.289928
 31
0.0
 11
58.083021
 21
203.289928
 31
0.0
 11
59.073114
 21
203.649604
 31
0.0
 11
59.879258
 21
204.327677
 31
0.0
 11
60.397894
 21
205.227178
 31
0.0
 11
60.580854
 21
206.264568
 31
0.0
  0
SPLINE
  5
12c
100
AcDbEntity
  8
0
 62
7
100
AcDbSpline
 70
0
 71
3
 72
16
 73
12
 74
10
 40
0.000000
 40
0.000000
 40
0.000000
 40
0.000000
 40
1.098369
 40
2.181012
 40
3.279381
 40
4.377750
 40
5.460393
 40
6.558762
 40
7.657132
 40
8.739774
 40
9.838143
 40
9.838143
 40
9.838143
 40
9.838143
 10
69.388962
 20
206.852948
 30
0.0
 10
69.351501
 20
207.220955
 30
0.0
 10
69.277117
 20
207.951700
 30
0.0
 10
68.698019
 20
208.917525
 30
0.0
 10
67.849909
 20
209.635626
 30
0.0
 10
66.799398
 20
210.016497
 30
0.0
 10
65.685193
 20
210.016497
 30
0.0
 10
64.634682
 20
209.635626
 30
0.0
 10
63.786572
 20
208.917525
 30
0.0
 10
63.207474
 20
207.951700
 30
0.0
 10
63.133090
 20
207.220955
 30
0.0
 10
63.095629
 20
206.852948
 30
0.0
 11
69.388962
 21
206.852948
 31
0.0
 11
69.197767
 21
207.934548
 31
0.0
 11
68.656711
 21
208.872297
 31
0.0
 11
67.816013
 21
209.579151
 31
0.0
 11
66.783617
 21
209.954081
 31
0.0
 11
65.700974
 21
209.954081
 31
0.0
 11
64.668577
 21
209.579151
 31
0.0
 11
63.827880
 21
208.872297
 31
0.0
 11
63.286824
 21
207.934548
 31
0.0
 11
63.095629
 21
206.852948
 31
0.0
  0
LWPOLYLINE
  5
12d
100
AcDbEntity
  8
0
 62
7
100
AcDbPolyline
 90
1
 70
1
 10
60.580854
 20
206.264568
 30
0.0
  0
LWPOLYLINE
  5
12e
100
AcDbEntity
  8
0
 62
7
100
AcDbPolyline
 90
1
 70
1
 10
69.388962
 20
206.852948
 30
0.0
  0
LWPOLYLINE
  5
12f
100
AcDbEntity
  8
0
 62
7
100
AcDbPolyline
 90
2
 70
0
 10
47.654235
 20
311.726548
 30
0.0
 10
86.587570
 20
311.726548
 30
0.0
  0
SPLINE
  5
130
100
AcDbEntity
  8
0
 62
7
100
AcDbSpline
 70
0
 71
3
 72
16
 73
12
 74
10
 40
0.000000
 40
0.000000
 40
0.000000
 40
0.000000
 40
1.098369
 40
2.181012
 40
3.279381
 40
4.377750
 40
5.460393
 40
6.558762
 40
7.657132
 40
8.739774
 40
9.838143
 40
9.838143
 40
9.838143
 40
9.838143
 10
63.095629
 20
206.852948
 30
0.0
 10
63.133090
 20
206.484940
 30
0.0
 10
63.207474
 20
205.754195
 30
0.0
 10
63.786572
 20
204.788370
 30
0.0
 10
64.634682
 20
204.070269
 30
0.0
 10
65.685193
 20
203.689398
 30
0.0
 10
66.799398
 20
203.689398
 30
0.0
 10
67.849909
 20
204.070269
 30
0.0
 10
68.698019
 20
204.788370
 30
0.0
 10
69.277117
 20
205.754195
 30
0.0
 10
69.351501
 20
206.484940
 30
0.0
 10
69.388962
 20
206.852948
 30
0.0
 11
63.095629
 21
206.852948
 31
0.0
 11
63.286824
 21
205.771347
 31
0.0
 11
63.827880
 21
204.833599
 31
0.0
 11
64.668577
 21
204.126744
 31
0.0
 11
65.700974
 21
203.751814
 31
0.0
 11
66.783617
 21
203.751814
 31
0.0
 11
67.816013
 21
204.126744
 31
0.0
 11
68.656711
 21
204.833599
 31
0.0
 11
69.197767
 21
205.771347
 31
0.0
 11
69.388962
 21
206.852948
 31
0.0
  0
SPLINE
  5
131
100
AcDbEntity
  8
0
 62
7
100
AcDbSpline
 70
0
 71
3
 72
16
 73
12
 74
10
 40
0.000000
 40
0.000000
 40
0.000000
 40
0.000000
 40
1.053322
 40
2.091557
 40
3.144879
 40
4.198201
 40
5.236436
 40
6.289758
 40
7.343081
 40
8.381315
 40
9.434637
 40
9.434637
 40
9.434637
 40
9.434637
 10
60.580854
 20
226.029380
 30
0.0
 10
60.545037
 20
226.382307
 30
0.0
 10
60.473916
 20
227.083105
 30
0.0
 10
59.918762
 20
228.009448
 30
0.0
 10
59.105531
 20
228.698219
 30
0.0
 10
58.098124
 20
229.063545
 30
0.0
 10
57.029608
 20
229.063545
 30
0.0
 10
56.022201
 20
228.698219
 30
0.0
 10
55.208970
 20
228.009448
 30
0.0
 10
54.653816
 20
227.083105
 30
0.0
 10
54.582695
 20
226.382307
 30
0.0
 10
54.546878
 20
226.029380
 30
0.0
 11
60.580854
 21
226.029380
 31
0.0
 11
60.397801
 21
227.066675
 31
0.0
 11
59.879133
 21
227.966071
 31
0.0
 11
59.073013
 21
228.644053
 31
0.0
 11
58.082983
 21
229.003676
 31
0.0
 11
57.044749
 21
229.003676
 31
0.0
 11
56.054719
 21
228.644053
 31
0.0
 11
55.248600
 21
227.966071
 31
0.0
 11
54.729932
 21
227.066675
 31
0.0
 11
54.546878
 21
226.029380
 31
0.0
  0
LWPOLYLINE
  5
132
100
AcDbEntity
  8
0
 62
7
100
AcDbPolyline
 90
2
 70
0
 10
86.587570
 20
119.726548
 30
0.0
 10
47.654235
 20
119.726548
 30
0.0
  0
LWPOLYLINE
  5
133
100
AcDbEntity
  8
0
 62
7
100
AcDbPolyline
 90
1
 70
1
 10
60.580854
 20
226.029380
 30
0.0
  0
LWPOLYLINE
  5
134
100
AcDbEntity
  8
0
 62
7
100
AcDbPolyline
 90
2
 70
0
 10
8.720902
 20
311.726548
 30
0.0
 10
8.720902
 20
119.726548
 30
0.0
  0
LWPOLYLINE
  5
135
100
AcDbEntity
  8
0
 62
7
100
AcDbPolyline
 90
2
 70
0
 10
8.720902
 20
311.726548
 30
0.0
 10
8.720902
 20
119.726548
 30
0.0
  0
LWPOLYLINE
  5
136
100
AcDbEntity
  8
0
 62
7
100
AcDbPolyline
 90
2
 70
0
 10
8.720902
 20
311.726548
 30
0.0
 10
8.720902
 20
119.726548
 30
0.0
  0
LWPOLYLINE
  5
137
100
AcDbEntity
  8
0
 62
7
100
AcDbPolyline
 90
2
 70
0
 10
8.720902
 20
311.726548
 30
0.0
 10
8.720902
 20
119.726548
 30
0.0
  0
LWPOLYLINE
  5
138
100
AcDbEntity
  8
0
 62
7
100
AcDbPolyline
 90
2
 70
0
 10
8.720902
 20
311.726548
 30
0.0
 10
8.720902
 20
119.726548
 30
0.0
  0
LWPOLYLINE
  5
139
100
AcDbEntity
  8
0
 62
7
100
AcDbPolyline
 90
2
 70
0
 10
8.720902
 20
311.726548
 30
0.0
 10
8.720902
 20
119.726548
 30
0.0
  0
LWPOLYLINE
  5
13a
100
AcDbEntity
  8
0
 62
7
100
AcDbPolyline
 90
2
 70
0
 10
8.720902
 20
311.726548
 30
0.0
 10
8.720902
 20
119.726548
 30
0.0
  0
LWPOLYLINE
  5
13b
100
AcDbEntity
  8
0
 62
7
100
AcDbPolyline
 90
3
 70
0
 10
8.720902
 20
311.726548
 30
0.0
 10
8.720902
 20
119.726548
 30
0.0
 10
47.654235
 20
119.726548
 30
0.0
  0
LWPOLYLINE
  5
13c
100
AcDbEntity
  8
0
 62
7
100
AcDbPolyline
 90
2
 70
0
 10
8.720902
 20
311.726548
 30
0.0
 10
8.720902
 20
119.726548
 30
0.0
  0
LWPOLYLINE
  5
13d
100
AcDbEntity
  8
0
 62
7
100
AcDbPolyline
 90
3
 70
0
 10
8.720902
 20
311.726548
 30
0.0
 10
8.720902
 20
119.726548
 30
0.0
 10
47.654235
 20
119.726548
 30
0.0
  0
LWPOLYLINE
  5
13e
100
AcDbEntity
  8
0
 62
7
100
AcDbPolyline
 90
2
 70
0
 10
8.720902
 20
311.726548
 30
0.0
 10
8.720902
 20
119.726548
 30
0.0
  0
LWPOLYLINE
  5
13f
100
AcDbEntity
  8
0
 62
7
100
AcDbPolyline
 90
3
 70
0
 10
8.720902
 20
311.726548
 30
0.0
 10
8.720902
 20
119.726548
 30
0.0
 10
47.654235
 20
119.726548
 30
0.0
  0
LWPOLYLINE
  5
140
100
AcDbEntity
  8
0
 62
7
100
AcDbPolyline
 90
2
 70
0
 10
8.720902
 20
119.726548
 30
0.0
 10
47.654235
 20
119.726548
 30
0.0
  0
LWPOLYLINE
  5
141
100
AcDbEntity
  8
0
 62
7
100
AcDbPolyline
 90
3
 70
0
 10
8.720902
 20
311.726548
 30
0.0
 10
8.720902
 20
119.726548
 30
0.0
 10
47.654235
 20
119.726548
 30
0.0
  0
LWPOLYLINE
  5
142
100
AcDbEntity
  8
0
 62
7
100
AcDbPolyline
 90
2
 70
0
 10
8.720902
 20
119.726548
 30
0.0
 10
47.654235
 20
119.726548
 30
0.0
  0
LWPOLYLINE
  5
143
100
AcDbEntity
  8
0
 62
7
100
AcDbPolyline
 90
2
 70
0
 10
8.720902
 20
311.726548
 30
0.0
 10
8.720902
 20
119.726548
 30
0.0
  0
LWPOLYLINE
  5
144
100
AcDbEntity
  8
0
 62
7
100
AcDbPolyline
 90
3
 70
0
 10
8.720902
 20
311.726548
 30
0.0
 10
8.720902
 20
119.726548
 30
0.0
 10
47.654235
 20
119.726548
 30
0.0
  0
LWPOLYLINE
  5
145
100
AcDbEntity
  8
0
 62
7
100
AcDbPolyline
 90
2
 70
0
 10
8.720902
 20
119.726548
 30
0.0
 10
47.654235
 20
119.726548
 30
0.0
  0
LWPOLYLINE
  5
146
100
AcDbEntity
  8
0
 62
7
100
AcDbPolyline
 90
3
 70
0
 10
8.720902
 20
311.726548
 30
0.0
 10
8.720902
 20
119.726548
 30
0.0
 10
47.654235
 20
119.726548
 30
0.0
  0
LWPOLYLINE
  5
147
100
AcDbEntity
  8
0
 62
7
100
AcDbPolyline
 90
2
 70
0
 10
47.654235
 20
311.726548
 30
0.0
 10
8.720902
 20
311.726548
 30
0.0
  0
LWPOLYLINE
  5
148
100
AcDbEntity
  8
0
 62
7
100
AcDbPolyline
 90
2
 70
0
 10
8.720902
 20
119.726548
 30
0.0
 10
47.654235
 20
119.726548
 30
0.0
  0
LWPOLYLINE
  5
149
100
AcDbEntity
  8
0
 62
7
100
AcDbPolyline
 90
2
 70
0
 10
47.654235
 20
311.726548
 30
0.0
 10
8.720902
 20
311.726548
 30
0.0
  0
LWPOLYLINE
  5
14a
100
AcDbEntity
  8
0
 62
7
100
AcDbPolyline
 90
2
 70
0
 10
47.654235
 20
311.726548
 30
0.0
 10
8.720902
 20
311.726548
 30
0.0
  0
LWPOLYLINE
  5
14b
100
AcDbEntity
  8
0
 62
7
100
AcDbPolyline
 90
2
 70
0
 10
47.654235
 20
311.726548
 30
0.0
 10
8.720902
 20
311.726548
 30
0.0
  0
LWPOLYLINE
  5
14c
100
AcDbEntity
  8
0
 62
7
100
AcDbPolyline
 90
2
 70
0
 10
47.654235
 20
311.726548
 30
0.0
 10
8.720902
 20
311.726548
 30
0.0
  0
LWPOLYLINE
  5
14d
100
AcDbEntity
  8
0
 62
7
100
AcDbPolyline
 90
2
 70
0
 10
8.720902
 20
119.726548
 30
0.0
 10
47.654235
 20
119.726548
 30
0.0
  0
LWPOLYLINE
  5
14e
100
AcDbEntity
  8
0
 62
7
100
AcDbPolyline
 90
2
 70
0
 10
47.654235
 20
311.726548
 30
0.0
 10
8.720902
 20
311.726548
 30
0.0
  0
LWPOLYLINE
  5
14f
100
AcDbEntity
  8
0
 62
7
100
AcDbPolyline
 90
2
 70
0
 10
8.720902
 20
119.726548
 30
0.0
 10
47.654235
 20
119.726548
 30
0.0
  0
LWPOLYLINE
  5
150
100
AcDbEntity
  8
0
 62
7
100
AcDbPolyline
 90
2
 70
0
 10
47.654235
 20
311.726548
 30
0.0
 10
8.720902
 20
311.726548
 30
0.0
  0
LWPOLYLINE
  5
151
100
AcDbEntity
  8
0
 62
7
100
AcDbPolyline
 90
2
 70
0
 10
47.654235
 20
311.726548
 30
0.0
 10
8.720902
 20
311.726548
 30
0.0
  0
LWPOLYLINE
  5
152
100
AcDbEntity
  8
0
 62
7
100
AcDbPolyline
 90
2
 70
0
 10
47.654235
 20
311.726548
 30
0.0
 10
8.720902
 20
311.726548
 30
0.0
  0
LWPOLYLINE
  5
153
100
AcDbEntity
  8
0
 62
7
100
AcDbPolyline
 90
2
 70
0
 10
8.720902
 20
119.726548
 30
0.0
 10
47.654235
 20
119.726548
 30
0.0
  0
LWPOLYLINE
  5
154
100
AcDbEntity
  8
0
 62
7
100
AcDbPolyline
 90
2
 70
0
 10
8.720902
 20
119.726548
 30
0.0
 10
47.654235
 20
119.726548
 30
0.0
  0
LWPOLYLINE
  5
155
100
AcDbEntity
  8
0
 62
7
100
AcDbPolyline
 90
2
 70
0
 10
8.720902
 20
119.726548
 30
0.0
 10
47.654235
 20
119.726548
 30
0.0
  0
LWPOLYLINE
  5
156
100
AcDbEntity
  8
0
 62
7
100
AcDbPolyline
 90
2
 70
0
 10
47.654235
 20
311.726548
 30
0.0
 10
8.720902
 20
311.726548
 30
0.0
  0
SPLINE
  5
157
100
AcDbEntity
  8
0
 62
7
100
AcDbSpline
 70
0
 71
3
 72
16
 73
12
 74
10
 40
0.000000
 40
0.000000
 40
0.000000
 40
0.000000
 40
1.053400
 40
2.091709
 40
3.145109
 40
4.198509
 40
5.236818
 40
6.290218
 40
7.343618
 40
8.381927
 40
9.435327
 40
9.435327
 40
9.435327
 40
9.435327
 10
54.546878
 20
226.029380
 30
0.0
 10
54.582660
 20
225.676423
 30
0.0
 10
54.653710
 20
224.975565
 30
0.0
 10
55.208837
 20
224.049109
 30
0.0
 10
56.022093
 20
223.360243
 30
0.0
 10
57.029568
 20
222.994864
 30
0.0
 10
58.098165
 20
222.994864
 30
0.0
 10
59.105639
 20
223.360243
 30
0.0
 10
59.918896
 20
224.049109
 30
0.0
 10
60.474022
 20
224.975565
 30
0.0
 10
60.545073
 20
225.676423
 30
0.0
 10
60.580854
 20
226.029380
 30
0.0
 11
54.546878
 21
226.029380
 31
0.0
 11
54.729839
 21
224.991991
 31
0.0
 11
55.248474
 21
224.092490
 31
0.0
 11
56.054618
 21
223.414416
 31
0.0
 11
57.044712
 21
223.054741
 31
0.0
 11
58.083021
 21
223.054741
 31
0.0
 11
59.073114
 21
223.414416
 31
0.0
 11
59.879258
 21
224.092490
 31
0.0
 11
60.397894
 21
224.991991
 31
0.0
 11
60.580854
 21
226.029380
 31
0.0
  0
LWPOLYLINE
  5
158
100
AcDbEntity
  8
0
 62
7
100
AcDbPolyline
 90
2
 70
0
 10
8.720902
 20
119.726548
 30
0.0
 10
47.654235
 20
119.726548
 30
0.0
  0
LWPOLYLINE
  5
159
100
AcDbEntity
  8
0
 62
7
100
AcDbPolyline
 90
1
 70
1
 10
40.761595
 20
206.264568
 30
0.0
  0
LWPOLYLINE
  5
15a
100
AcDbEntity
  8
0
 62
7
100
AcDbPolyline
 90
2
 70
0
 10
47.654235
 20
311.726548
 30
0.0
 10
8.720902
 20
311.726548
 30
0.0
  0
LWPOLYLINE
  5
15b
100
AcDbEntity
  8
0
 62
7
100
AcDbPolyline
 90
2
 70
0
 10
47.654235
 20
311.726548
 30
0.0
 10
8.720902
 20
311.726548
 30
0.0
  0
LWPOLYLINE
  5
15c
100
AcDbEntity
  8
0
 62
7
100
AcDbPolyline
 90
2
 70
0
 10
47.654235
 20
311.726548
 30
0.0
 10
8.720902
 20
311.726548
 30
0.0
  0
LWPOLYLINE
  5
15d
100
AcDbEntity
  8
0
 62
7
100
AcDbPolyline
 90
2
 70
0
 10
47.654235
 20
311.726548
 30
0.0
 10
8.720902
 20
311.726548
 30
0.0
  0
LWPOLYLINE
  5
15e
100
AcDbEntity
  8
0
 62
7
100
AcDbPolyline
 90
2
 70
0
 10
47.654235
 20
311.726548
 30
0.0
 10
8.720902
 20
311.726548
 30
0.0
  0
SPLINE
  5
15f
100
AcDbEntity
  8
0
 62
7
100
AcDbSpline
 70
0
 71
3
 72
25
 73
21
 74
19
 40
0.000000
 40
0.000000
 40
0.000000
 40
0.000000
 40
1.052821
 40
2.090575
 40
3.143396
 40
4.196217
 40
5.233970
 40
6.286791
 40
7.339612
 40
8.377366
 40
9.430187
 40
10.483008
 40
11.520761
 40
12.573582
 40
13.626403
 40
14.664157
 40
15.716978
 40
16.769799
 40
17.807553
 40
18.860374
 40
18.860374
 40
18.860374
 40
18.860374
 10
40.761595
 20
206.264568
 30
0.0
 10
40.725549
 20
206.617298
 30
0.0
 10
40.653971
 20
207.317710
 30
0.0
 10
40.098644
 20
208.243316
 30
0.0
 10
39.285550
 20
208.931480
 30
0.0
 10
38.278688
 20
209.296459
 30
0.0
 10
37.210293
 20
209.296459
 30
0.0
 10
36.204841
 20
208.931480
 30
0.0
 10
35.386117
 20
208.243316
 30
0.0
 10
34.851710
 20
207.317710
 30
0.0
 10
34.665122
 20
206.264568
 30
0.0
 10
34.851710
 20
205.211425
 30
0.0
 10
35.386117
 20
204.285820
 30
0.0
 10
36.204841
 20
203.597656
 30
0.0
 10
37.210293
 20
203.232677
 30
0.0
 10
38.278688
 20
203.232677
 30
0.0
 10
39.285550
 20
203.597656
 30
0.0
 10
40.098644
 20
204.285820
 30
0.0
 10
40.653971
 20
205.211425
 30
0.0
 10
40.725549
 20
205.911838
 30
0.0
 10
40.761595
 20
206.264568
 30
0.0
 11
40.761595
 21
206.264568
 31
0.0
 11
40.577940
 21
207.301247
 31
0.0
 11
40.059063
 21
208.199967
 31
0.0
 11
39.253101
 21
208.877357
 31
0.0
 11
38.263483
 21
209.236646
 31
0.0
 11
37.225729
 21
209.236646
 31
0.0
 11
36.236111
 21
208.877357
 31
0.0
 11
35.430149
 21
208.199967
 31
0.0
 11
34.911272
 21
207.301247
 31
0.0
 11
34.727617
 21
206.264568
 31
0.0
 11
34.911272
 21
205.227889
 31
0.0
 11
35.430149
 21
204.329168
 31
0.0
 11
36.236111
 21
203.651778
 31
0.0
 11
37.225729
 21
203.292490
 31
0.0
 11
38.263483
 21
203.292490
 31
0.0
 11
39.253101
 21
203.651778
 31
0.0
 11
40.059063
 21
204.329168
 31
0.0
 11
40.577940
 21
205.227889
 31
0.0
 11
40.761595
 21
206.264568
 31
0.0
  0
LWPOLYLINE
  5
160
100
AcDbEntity
  8
0
 62
7
100
AcDbPolyline
 90
2
 70
0
 10
47.654235
 20
311.726548
 30
0.0
 10
8.720902
 20
311.726548
 30
0.0
  0
SPLINE
  5
161
100
AcDbEntity
  8
0
 62
7
100
AcDbSpline
 70
0
 71
3
 72
25
 73
21
 74
19
 40
0.000000
 40
0.000000
 40
0.000000
 40
0.000000
 40
1.052821
 40
2.090575
 40
3.143396
 40
4.196217
 40
5.233970
 40
6.286791
 40
7.339612
 40
8.377366
 40
9.430187
 40
10.483008
 40
11.520761
 40
12.573582
 40
13.626403
 40
14.664157
 40
15.716978
 40
16.769799
 40
17.807553
 40
18.860374
 40
18.860374
 40
18.860374
 40
18.860374
 10
40.761595
 20
226.029380
 30
0.0
 10
40.725549
 20
226.382111
 30
0.0
 10
40.653971
 20
227.082523
 30
0.0
 10
40.098644
 20
228.008129
 30
0.0
 10
39.285550
 20
228.696292
 30
0.0
 10
38.278688
 20
229.061271
 30
0.0
 10
37.210293
 20
229.061271
 30
0.0
 10
36.204841
 20
228.696292
 30
0.0
 10
35.386117
 20
228.008129
 30
0.0
 10
34.851710
 20
227.082523
 30
0.0
 10
34.665122
 20
226.029380
 30
0.0
 10
34.851710
 20
224.976238
 30
0.0
 10
35.386117
 20
224.050632
 30
0.0
 10
36.204841
 20
223.362469
 30
0.0
 10
37.210293
 20
222.997490
 30
0.0
 10
38.278688
 20
222.997490
 30
0.0
 10
39.285550
 20
223.362469
 30
0.0
 10
40.098644
 20
224.050632
 30
0.0
 10
40.653971
 20
224.976238
 30
0.0
 10
40.725549
 20
225.676650
 30
0.0
 10
40.761595
 20
226.029380
 30
0.0
 11
40.761595
 21
226.029380
 31
0.0
 11
40.577940
 21
227.066059
 31
0.0
 11
40.059063
 21
227.964780
 31
0.0
 11
39.253101
 21
228.642170
 31
0.0
 11
38.263483
 21
229.001459
 31
0.0
 11
37.225729
 21
229.001459
 31
0.0
 11
36.236111
 21
228.642170
 31
0.0
 11
35.430149
 21
227.964780
 31
0.0
 11
34.911272
 21
227.066059
 31
0.0
 11
34.727617
 21
226.029380
 31
0.0
 11
34.911272
 21
224.992702
 31
0.0
 11
35.430149
 21
224.093981
 31
0.0
 11
36.236111
 21
223.416591
 31
0.0
 11
37.225729
 21
223.057302
 31
0.0
 11
38.263483
 21
223.057302
 31
0.0
 11
39.253101
 21
223.416591
 31
0.0
 11
40.059063
 21
224.093981
 31
0.0
 11
40.577940
 21
224.992702
 31
0.0
 11
40.761595
 21
226.029380
 31
0.0
  0
LWPOLYLINE
  5
162
100
AcDbEntity
  8
0
 62
7
100
AcDbPolyline
 90
1
 70
1
 10
40.761595
 20
226.029380
 30
0.0
  0
SPLINE
  5
163
100
AcDbEntity
  8
0
 62
7
100
AcDbSpline
 70
0
 71
3
 72
25
 73
21
 74
19
 40
0.000000
 40
0.000000
 40
0.000000
 40
0.000000
 40
1.098074
 40
2.180432
 40
3.278506
 40
4.376580
 40
5.458938
 40
6.557012
 40
7.655086
 40
8.737444
 40
9.835518
 40
10.933801
 40
12.016360
 40
13.114643
 40
14.212926
 40
15.295485
 40
16.393768
 40
17.492051
 40
18.574610
 40
19.672893
 40
19.672893
 40
19.672893
 40
19.672893
 10
32.226399
 20
225.003946
 30
0.0
 10
32.188803
 20
225.371837
 30
0.0
 10
32.114149
 20
226.102355
 30
0.0
 10
31.534952
 20
227.067745
 30
0.0
 10
30.686911
 20
227.785487
 30
0.0
 10
29.636770
 20
228.166154
 30
0.0
 10
28.522454
 20
228.166154
 30
0.0
 10
27.473783
 20
227.785487
 30
0.0
 10
26.619877
 20
227.067746
 30
0.0
 10
26.062469
 20
226.102352
 30
0.0
 10
25.867969
 20
225.003886
 30
0.0
 10
26.062190
 20
223.905291
 30
0.0
 10
26.619515
 20
222.939597
 30
0.0
 10
27.473492
 20
222.221600
 30
0.0
 10
28.522345
 20
221.840789
 30
0.0
 10
29.636880
 20
221.840789
 30
0.0
 10
30.687202
 20
222.221600
 30
0.0
 10
31.535313
 20
222.939596
 30
0.0
 10
32.114435
 20
223.905293
 30
0.0
 10
32.188899
 20
224.635972
 30
0.0
 10
32.226400
 20
225.003946
 30
0.0
 11
32.226399
 21
225.003946
 31
0.0
 11
32.034850
 21
226.085183
 31
0.0
 11
31.493670
 21
227.022533
 31
0.0
 11
30.653066
 21
227.729039
 31
0.0
 11
29.620912
 21
228.103771
 31
0.0
 11
28.538553
 21
228.103771
 31
0.0
 11
27.506399
 21
227.729039
 31
0.0
 11
26.665795
 21
227.022533
 31
0.0
 11
26.124616
 21
226.085183
 31
0.0
 11
25.933066
 21
225.003946
 31
0.0
 11
26.124365
 21
223.922451
 31
0.0
 11
26.665457
 21
222.984819
 31
0.0
 11
27.506127
 21
222.278067
 31
0.0
 11
28.538453
 21
221.903195
 31
0.0
 11
29.621012
 21
221.903195
 31
0.0
 11
30.653338
 21
222.278067
 31
0.0
 11
31.494008
 21
222.984819
 31
0.0
 11
32.035101
 21
223.922451
 31
0.0
 11
32.226400
 21
225.003946
 31
0.0
  0
LWPOLYLINE
  5
164
100
AcDbEntity
  8
0
 62
7
100
AcDbPolyline
 90
1
 70
1
 10
32.226400
 20
225.003946
 30
0.0
  0
LWPOLYLINE
  5
165
100
AcDbEntity
  8
0
 62
7
100
AcDbPolyline
 90
1
 70
1
 10
32.212844
 20
206.852948
 30
0.0
  0
LWPOLYLINE
  5
166
100
AcDbEntity
  8
0
 62
7
100
AcDbPolyline
 90
4
 70
1
 10
53.543570
 20
150.661024
 30
0.0
 10
41.810234
 20
150.661024
 30
0.0
 10
41.810234
 20
121.905679
 30
0.0
 10
53.543570
 20
121.905679
 30
0.0
  0
LWPOLYLINE
  5
167
100
AcDbEntity
  8
0
 62
7
100
AcDbPolyline
 90
4
 70
1
 10
82.876901
 20
150.609680
 30
0.0
 10
82.876901
 20
122.007013
 30
0.0
 10
80.071570
 20
122.007013
 30
0.0
 10
80.071570
 20
150.609680
 30
0.0
  0
SPLINE
  5
168
100
AcDbEntity
  8
0
 62
7
100
AcDbSpline
 70
0
 71
3
 72
25
 73
21
 74
19
 40
0.000000
 40
0.000000
 40
0.000000
 40
0.000000
 40
1.098074
 40
2.180432
 40
3.278506
 40
4.376580
 40
5.458938
 40
6.557012
 40
7.655086
 40
8.737444
 40
9.835518
 40
10.933592
 40
12.015950
 40
13.114024
 40
14.212098
 40
15.294456
 40
16.392530
 40
17.490604
 40
18.572962
 40
19.671036
 40
19.671036
 40
19.671036
 40
19.671036
 10
32.212844
 20
206.852948
 30
0.0
 10
32.175248
 20
207.220839
 30
0.0
 10
32.100594
 20
207.951357
 30
0.0
 10
31.521397
 20
208.916747
 30
0.0
 10
30.673355
 20
209.634489
 30
0.0
 10
29.623215
 20
210.015156
 30
0.0
 10
28.508899
 20
210.015156
 30
0.0
 10
27.460230
 20
209.634489
 30
0.0
 10
26.606315
 20
208.916747
 30
0.0
 10
26.048939
 20
207.951357
 30
0.0
 10
25.854331
 20
206.852948
 30
0.0
 10
26.048939
 20
205.754539
 30
0.0
 10
26.606315
 20
204.789148
 30
0.0
 10
27.460230
 20
204.071406
 30
0.0
 10
28.508899
 20
203.690739
 30
0.0
 10
29.623216
 20
203.690739
 30
0.0
 10
30.673356
 20
204.071406
 30
0.0
 10
31.521397
 20
204.789148
 30
0.0
 10
32.100594
 20
205.754539
 30
0.0
 10
32.175248
 20
206.485056
 30
0.0
 10
32.212844
 20
206.852948
 30
0.0
 11
32.212844
 21
206.852948
 31
0.0
 11
32.021295
 21
207.934185
 31
0.0
 11
31.480115
 21
208.871535
 31
0.0
 11
30.639511
 21
209.578041
 31
0.0
 11
29.607357
 21
209.952773
 31
0.0
 11
28.524998
 21
209.952773
 31
0.0
 11
27.492844
 21
209.578041
 31
0.0
 11
26.652240
 21
208.871535
 31
0.0
 11
26.111061
 21
207.934185
 31
0.0
 11
25.919511
 21
206.852948
 31
0.0
 11
26.111061
 21
205.771710
 31
0.0
 11
26.652240
 21
204.834360
 31
0.0
 11
27.492844
 21
204.127854
 31
0.0
 11
28.524998
 21
203.753122
 31
0.0
 11
29.607357
 21
203.753122
 31
0.0
 11
30.639511
 21
204.127854
 31
0.0
 11
31.480115
 21
204.834360
 31
0.0
 11
32.021295
 21
205.771710
 31
0.0
 11
32.212844
 21
206.852948
 31
0.0
  0
LWPOLYLINE
  5
169
100
AcDbEntity
  8
0
 62
7
100
AcDbPolyline
 90
4
 70
1
 10
86.610235
 20
119.772347
 30
0.0
 10
86.610235
 20
152.839012
 30
0.0
 10
8.743568
 20
152.839012
 30
0.0
 10
8.743568
 20
119.772347
 30
0.0
  0
SPLINE
  5
16a
100
AcDbEntity
  8
0
 62
7
100
AcDbSpline
 70
0
 71
3
 72
25
 73
21
 74
19
 40
0.000000
 40
0.000000
 40
0.000000
 40
0.000000
 40
0.800291
 40
1.589129
 40
2.389420
 40
3.189711
 40
3.978549
 40
4.778840
 40
5.579131
 40
6.367969
 40
7.168260
 40
7.968551
 40
8.757389
 40
9.557680
 40
10.357971
 40
11.146808
 40
11.947100
 40
12.747391
 40
13.536228
 40
14.336519
 40
14.336519
 40
14.336519
 40
14.336519
 10
40.370235
 20
147.308487
 30
0.0
 10
40.342834
 20
147.576611
 30
0.0
 10
40.288425
 20
148.109022
 30
0.0
 10
39.866299
 20
148.812612
 30
0.0
 10
39.248235
 20
149.335712
 30
0.0
 10
38.482878
 20
149.613147
 30
0.0
 10
37.670749
 20
149.613147
 30
0.0
 10
36.906465
 20
149.335712
 30
0.0
 10
36.284120
 20
148.812612
 30
0.0
 10
35.877897
 20
148.109022
 30
0.0
 10
35.736064
 20
147.308487
 30
0.0
 10
35.877897
 20
146.507951
 30
0.0
 10
36.284120
 20
145.804362
 30
0.0
 10
36.906465
 20
145.281261
 30
0.0
 10
37.670749
 20
145.003826
 30
0.0
 10
38.482878
 20
145.003826
 30
0.0
 10
39.248235
 20
145.281261
 30
0.0
 10
39.866299
 20
145.804362
 30
0.0
 10
40.288425
 20
146.507951
 30
0.0
 10
40.342834
 20
147.040362
 30
0.0
 10
40.370235
 20
147.308487
 30
0.0
 11
40.370235
 21
147.308487
 31
0.0
 11
40.230631
 21
148.096507
 31
0.0
 11
39.836212
 21
148.779661
 31
0.0
 11
39.223568
 21
149.294572
 31
0.0
 11
38.471320
 21
149.567682
 31
0.0
 11
37.682483
 21
149.567682
 31
0.0
 11
36.930235
 21
149.294572
 31
0.0
 11
36.317591
 21
148.779661
 31
0.0
 11
35.923172
 21
148.096507
 31
0.0
 11
35.783568
 21
147.308487
 31
0.0
 11
35.923172
 21
146.520466
 31
0.0
 11
36.317591
 21
145.837313
 31
0.0
 11
36.930235
 21
145.322402
 31
0.0
 11
37.682483
 21
145.049292
 31
0.0
 11
38.471320
 21
145.049292
 31
0.0
 11
39.223568
 21
145.322402
 31
0.0
 11
39.836212
 21
145.837313
 31
0.0
 11
40.230631
 21
146.520466
 31
0.0
 11
40.370235
 21
147.308487
 31
0.0
  0
LWPOLYLINE
  5
16b
100
AcDbEntity
  8
0
 62
7
100
AcDbPolyline
 90
1
 70
1
 10
40.370235
 20
147.308487
 30
0.0
  0
SPLINE
  5
16c
100
AcDbEntity
  8
0
 62
7
100
AcDbSpline
 70
0
 71
3
 72
25
 73
21
 74
19
 40
0.000000
 40
0.000000
 40
0.000000
 40
0.000000
 40
0.800291
 40
1.589129
 40
2.389420
 40
3.189711
 40
3.978549
 40
4.778840
 40
5.579131
 40
6.367969
 40
7.168260
 40
7.968551
 40
8.757389
 40
9.557680
 40
10.357971
 40
11.146808
 40
11.947100
 40
12.747391
 40
13.536228
 40
14.336519
 40
14.336519
 40
14.336519
 40
14.336519
 10
40.370235
 20
125.303013
 30
0.0
 10
40.342834
 20
125.571138
 30
0.0
 10
40.288425
 20
126.103549
 30
0.0
 10
39.866299
 20
126.807138
 30
0.0
 10
39.248235
 20
127.330239
 30
0.0
 10
38.482878
 20
127.607674
 30
0.0
 10
37.670749
 20
127.607674
 30
0.0
 10
36.906465
 20
127.330239
 30
0.0
 10
36.284120
 20
126.807138
 30
0.0
 10
35.877897
 20
126.103549
 30
0.0
 10
35.736064
 20
125.303013
 30
0.0
 10
35.877897
 20
124.502478
 30
0.0
 10
36.284120
 20
123.798888
 30
0.0
 10
36.906465
 20
123.275788
 30
0.0
 10
37.670749
 20
122.998353
 30
0.0
 10
38.482878
 20
122.998353
 30
0.0
 10
39.248235
 20
123.275788
 30
0.0
 10
39.866299
 20
123.798888
 30
0.0
 10
40.288425
 20
124.502478
 30
0.0
 10
40.342834
 20
125.034889
 30
0.0
 10
40.370235
 20
125.303013
 30
0.0
 11
40.370235
 21
125.303013
 31
0.0
 11
40.230631
 21
126.091034
 31
0.0
 11
39.836212
 21
126.774187
 31
0.0
 11
39.223568
 21
127.289098
 31
0.0
 11
38.471320
 21
127.562208
 31
0.0
 11
37.682483
 21
127.562208
 31
0.0
 11
36.930235
 21
127.289098
 31
0.0
 11
36.317591
 21
126.774187
 31
0.0
 11
35.923172
 21
126.091034
 31
0.0
 11
35.783568
 21
125.303013
 31
0.0
 11
35.923172
 21
124.514993
 31
0.0
 11
36.317591
 21
123.831839
 31
0.0
 11
36.930235
 21
123.316928
 31
0.0
 11
37.682483
 21
123.043818
 31
0.0
 11
38.471320
 21
123.043818
 31
0.0
 11
39.223568
 21
123.316928
 31
0.0
 11
39.836212
 21
123.831839
 31
0.0
 11
40.230631
 21
124.514993
 31
0.0
 11
40.370235
 21
125.303013
 31
0.0
  0
LWPOLYLINE
  5
16d
100
AcDbEntity
  8
0
 62
7
100
AcDbPolyline
 90
1
 70
1
 10
40.370235
 20
125.303013
 30
0.0
  0
LWPOLYLINE
  5
16e
100
AcDbEntity
  8
0
 62
7
100
AcDbPolyline
 90
1
 70
1
 10
59.570236
 20
125.303013
 30
0.0
  0
SPLINE
  5
16f
100
AcDbEntity
  8
0
 62
7
100
AcDbSpline
 70
0
 71
3
 72
25
 73
21
 74
19
 40
0.000000
 40
0.000000
 40
0.000000
 40
0.000000
 40
0.800291
 40
1.589129
 40
2.389420
 40
3.189711
 40
3.978549
 40
4.778840
 40
5.579131
 40
6.367969
 40
7.168260
 40
7.968551
 40
8.757389
 40
9.557680
 40
10.357971
 40
11.146808
 40
11.947100
 40
12.747391
 40
13.536228
 40
14.336519
 40
14.336519
 40
14.336519
 40
14.336519
 10
59.570236
 20
125.303013
 30
0.0
 10
59.542836
 20
125.571138
 30
0.0
 10
59.488426
 20
126.103549
 30
0.0
 10
59.066300
 20
126.807138
 30
0.0
 10
58.448236
 20
127.330239
 30
0.0
 10
57.682879
 20
127.607674
 30
0.0
 10
56.870750
 20
127.607674
 30
0.0
 10
56.106466
 20
127.330239
 30
0.0
 10
55.484121
 20
126.807138
 30
0.0
 10
55.077898
 20
126.103549
 30
0.0
 10
54.936065
 20
125.303013
 30
0.0
 10
55.077898
 20
124.502478
 30
0.0
 10
55.484121
 20
123.798888
 30
0.0
 10
56.106466
 20
123.275788
 30
0.0
 10
56.870750
 20
122.998353
 30
0.0
 10
57.682879
 20
122.998353
 30
0.0
 10
58.448236
 20
123.275788
 30
0.0
 10
59.066300
 20
123.798888
 30
0.0
 10
59.488426
 20
124.502478
 30
0.0
 10
59.542836
 20
125.034889
 30
0.0
 10
59.570236
 20
125.303013
 30
0.0
 11
59.570236
 21
125.303013
 31
0.0
 11
59.430632
 21
126.091034
 31
0.0
 11
59.036213
 21
126.774187
 31
0.0
 11
58.423569
 21
127.289098
 31
0.0
 11
57.671321
 21
127.562208
 31
0.0
 11
56.882484
 21
127.562208
 31
0.0
 11
56.130236
 21
127.289098
 31
0.0
 11
55.517592
 21
126.774187
 31
0.0
 11
55.123173
 21
126.091034
 31
0.0
 11
54.983569
 21
125.303013
 31
0.0
 11
55.123173
 21
124.514993
 31
0.0
 11
55.517592
 21
123.831839
 31
0.0
 11
56.130236
 21
123.316928
 31
0.0
 11
56.882484
 21
123.043818
 31
0.0
 11
57.671321
 21
123.043818
 31
0.0
 11
58.423569
 21
123.316928
 31
0.0
 11
59.036213
 21
123.831839
 31
0.0
 11
59.430632
 21
124.514993
 31
0.0
 11
59.570236
 21
125.303013
 31
0.0
  0
LWPOLYLINE
  5
170
100
AcDbEntity
  8
0
 62
7
100
AcDbPolyline
 90
4
 70
1
 10
11.520396
 20
150.609680
 30
0.0
 10
14.325730
 20
150.609680
 30
0.0
 10
14.325730
 20
122.007013
 30
0.0
 10
11.520396
 20
122.007013
 30
0.0
  0
SPLINE
  5
171
100
AcDbEntity
  8
0
 62
7
100
AcDbSpline
 70
0
 71
3
 72
25
 73
21
 74
19
 40
0.000000
 40
0.000000
 40
0.000000
 40
0.000000
 40
0.800291
 40
1.589129
 40
2.389420
 40
3.189711
 40
3.978549
 40
4.778840
 40
5.579131
 40
6.367969
 40
7.168260
 40
7.968551
 40
8.757389
 40
9.557680
 40
10.357971
 40
11.146808
 40
11.947100
 40
12.747391
 40
13.536228
 40
14.336519
 40
14.336519
 40
14.336519
 40
14.336519
 10
40.370235
 20
147.308487
 30
0.0
 10
40.342834
 20
147.576611
 30
0.0
 10
40.288425
 20
148.109022
 30
0.0
 10
39.866299
 20
148.812612
 30
0.0
 10
39.248235
 20
149.335712
 30
0.0
 10
38.482878
 20
149.613147
 30
0.0
 10
37.670749
 20
149.613147
 30
0.0
 10
36.906465
 20
149.335712
 30
0.0
 10
36.284120
 20
148.812612
 30
0.0
 10
35.877897
 20
148.109022
 30
0.0
 10
35.736064
 20
147.308487
 30
0.0
 10
35.877897
 20
146.507951
 30
0.0
 10
36.284120
 20
145.804362
 30
0.0
 10
36.906465
 20
145.281261
 30
0.0
 10
37.670749
 20
145.003826
 30
0.0
 10
38.482878
 20
145.003826
 30
0.0
 10
39.248235
 20
145.281261
 30
0.0
 10
39.866299
 20
145.804362
 30
0.0
 10
40.288425
 20
146.507951
 30
0.0
 10
40.342834
 20
147.040362
 30
0.0
 10
40.370235
 20
147.308487
 30
0.0
 11
40.370235
 21
147.308487
 31
0.0
 11
40.230631
 21
148.096507
 31
0.0
 11
39.836212
 21
148.779661
 31
0.0
 11
39.223568
 21
149.294572
 31
0.0
 11
38.471320
 21
149.567682
 31
0.0
 11
37.682483
 21
149.567682
 31
0.0
 11
36.930235
 21
149.294572
 31
0.0
 11
36.317591
 21
148.779661
 31
0.0
 11
35.923172
 21
148.096507
 31
0.0
 11
35.783568
 21
147.308487
 31
0.0
 11
35.923172
 21
146.520466
 31
0.0
 11
36.317591
 21
145.837313
 31
0.0
 11
36.930235
 21
145.322402
 31
0.0
 11
37.682483
 21
145.049292
 31
0.0
 11
38.471320
 21
145.049292
 31
0.0
 11
39.223568
 21
145.322402
 31
0.0
 11
39.836212
 21
145.837313
 31
0.0
 11
40.230631
 21
146.520466
 31
0.0
 11
40.370235
 21
147.308487
 31
0.0
  0
LWPOLYLINE
  5
172
100
AcDbEntity
  8
0
 62
7
100
AcDbPolyline
 90
1
 70
1
 10
40.370235
 20
147.308487
 30
0.0
  0
LWPOLYLINE
  5
173
100
AcDbEntity
  8
0
 62
7
100
AcDbPolyline
 90
1
 70
1
 10
59.570236
 20
147.308346
 30
0.0
  0
LWPOLYLINE
  5
174
100
AcDbEntity
  8
0
 62
7
100
AcDbPolyline
 90
2
 70
0
 10
60.460760
 20
152.839012
 30
0.0
 10
60.460760
 20
119.772347
 30
0.0
  0
SPLINE
  5
175
100
AcDbEntity
  8
0
 62
7
100
AcDbSpline
 70
0
 71
3
 72
25
 73
21
 74
19
 40
0.000000
 40
0.000000
 40
0.000000
 40
0.000000
 40
0.800291
 40
1.589129
 40
2.389420
 40
3.189711
 40
3.978549
 40
4.778840
 40
5.579131
 40
6.367969
 40
7.168260
 40
7.968551
 40
8.757389
 40
9.557680
 40
10.357971
 40
11.146808
 40
11.947100
 40
12.747391
 40
13.536228
 40
14.336519
 40
14.336519
 40
14.336519
 40
14.336519
 10
59.570236
 20
147.308346
 30
0.0
 10
59.542836
 20
147.576470
 30
0.0
 10
59.488426
 20
148.108881
 30
0.0
 10
59.066300
 20
148.812471
 30
0.0
 10
58.448236
 20
149.335571
 30
0.0
 10
57.682879
 20
149.613006
 30
0.0
 10
56.870750
 20
149.613006
 30
0.0
 10
56.106466
 20
149.335571
 30
0.0
 10
55.484121
 20
148.812471
 30
0.0
 10
55.077898
 20
148.108881
 30
0.0
 10
54.936065
 20
147.308346
 30
0.0
 10
55.077898
 20
146.507810
 30
0.0
 10
55.484121
 20
145.804220
 30
0.0
 10
56.106466
 20
145.281120
 30
0.0
 10
56.870750
 20
145.003685
 30
0.0
 10
57.682879
 20
145.003685
 30
0.0
 10
58.448236
 20
145.281120
 30
0.0
 10
59.066300
 20
145.804220
 30
0.0
 10
59.488426
 20
146.507810
 30
0.0
 10
59.542836
 20
147.040221
 30
0.0
 10
59.570236
 20
147.308346
 30
0.0
 11
59.570236
 21
147.308346
 31
0.0
 11
59.430632
 21
148.096366
 31
0.0
 11
59.036213
 21
148.779520
 31
0.0
 11
58.423569
 21
149.294431
 31
0.0
 11
57.671321
 21
149.567540
 31
0.0
 11
56.882484
 21
149.567540
 31
0.0
 11
56.130236
 21
149.294431
 31
0.0
 11
55.517592
 21
148.779520
 31
0.0
 11
55.123173
 21
148.096366
 31
0.0
 11
54.983569
 21
147.308346
 31
0.0
 11
55.123173
 21
146.520325
 31
0.0
 11
55.517592
 21
145.837171
 31
0.0
 11
56.130236
 21
145.322261
 31
0.0
 11
56.882484
 21
145.049151
 31
0.0
 11
57.671321
 21
145.049151
 31
0.0
 11
58.423569
 21
145.322261
 31
0.0
 11
59.036213
 21
145.837171
 31
0.0
 11
59.430632
 21
146.520325
 31
0.0
 11
59.570236
 21
147.308346
 31
0.0
  0
LWPOLYLINE
  5
176
100
AcDbEntity
  8
0
 62
7
100
AcDbPolyline
 90
2
 70
0
 10
34.814448
 20
152.839012
 30
0.0
 10
34.814448
 20
119.772347
 30
0.0
  0
ENDSEC
  0
SECTION
  2
OBJECTS
  0
DICTIONARY
  5
C
330
0
100
AcDbDictionary
  3
ACAD_GROUP
350
D
  3
ACAD_MLINESTYLE
350
17
  0
DICTIONARY
  5
D
330
C
100
AcDbDictionary
  0
DICTIONARY
  5
1A
330
C
100
AcDbDictionary
  0
DICTIONARY
  5
17
330
C
100
AcDbDictionary
  3
STANDARD
350
18
  0
DICTIONARY
  5
19
330
C
100
AcDbDictionary
  0
ENDSEC
  0
EOF
