<?xml version="1.0" encoding="UTF-8" standalone="no"?>
<!-- Generator: Adobe Illustrator 16.0.0, SVG Export Plug-In . SVG Version: 6.00 Build 0)  -->

<svg
   xmlns:dc="http://purl.org/dc/elements/1.1/"
   xmlns:cc="http://creativecommons.org/ns#"
   xmlns:rdf="http://www.w3.org/1999/02/22-rdf-syntax-ns#"
   xmlns:svg="http://www.w3.org/2000/svg"
   xmlns="http://www.w3.org/2000/svg"
   xmlns:sodipodi="http://sodipodi.sourceforge.net/DTD/sodipodi-0.dtd"
   xmlns:inkscape="http://www.inkscape.org/namespaces/inkscape"
   version="1.1"
   x="0px"
   y="0px"
   width="88.020042mm"
   height="58.479717mm"
   viewBox="146.485 704.338 311.88205 207.2116"
   enable-background="new 146.485 704.338 255.118 170.079"
   xml:space="preserve"
   id="svg2"
   inkscape:version="0.92.3 (2405546, 2018-03-11)"
   sodipodi:docname="RPIMODELSVG.svg"><metadata
     id="metadata3389"><rdf:RDF><cc:Work
         rdf:about=""><dc:format>image/svg+xml</dc:format><dc:type
           rdf:resource="http://purl.org/dc/dcmitype/StillImage" /><dc:title></dc:title><cc:license
           rdf:resource="http://creativecommons.org/licenses/by-sa/3.0/" /></cc:Work><cc:License
         rdf:about="http://creativecommons.org/licenses/by-sa/3.0/"><cc:permits
           rdf:resource="http://creativecommons.org/ns#Reproduction" /><cc:permits
           rdf:resource="http://creativecommons.org/ns#Distribution" /><cc:requires
           rdf:resource="http://creativecommons.org/ns#Notice" /><cc:requires
           rdf:resource="http://creativecommons.org/ns#Attribution" /><cc:permits
           rdf:resource="http://creativecommons.org/ns#DerivativeWorks" /><cc:requires
           rdf:resource="http://creativecommons.org/ns#ShareAlike" /></cc:License></rdf:RDF></metadata><defs
     id="defs3387" /><sodipodi:namedview
     pagecolor="#ffffff"
     bordercolor="#666666"
     borderopacity="1"
     objecttolerance="10"
     gridtolerance="10"
     guidetolerance="10"
     inkscape:pageopacity="0"
     inkscape:pageshadow="2"
     inkscape:window-width="1920"
     inkscape:window-height="1023"
     id="namedview3385"
     showgrid="false"
     inkscape:zoom="1.3875905"
     inkscape:cx="233.82743"
     inkscape:cy="113.4577"
     inkscape:window-x="-4"
     inkscape:window-y="26"
     inkscape:window-maximized="1"
     inkscape:current-layer="layer2"
     fit-margin-top="0"
     fit-margin-left="0"
     fit-margin-right="0"
     fit-margin-bottom="0"
     showguides="true"
     inkscape:guide-bbox="true"
     inkscape:document-units="mm"
     units="mm" /><g
     inkscape:groupmode="layer"
     id="layer2"
     inkscape:label="raspberry_pi"
     style="opacity:1"
     transform="translate(-108.09851,-276.81478)"><g
       id="g7"
       transform="matrix(1.2499921,0,0,1.2499921,67.848443,97.539644)"><path
         style="fill:#f9e494"
         inkscape:connector-curvature="0"
         id="path9"
         d="m 159.215,846.98 c -4.79,0 -8.655,3.866 -8.655,8.656 0,4.789 3.865,8.739 8.655,8.739 4.79,0 8.74,-3.95 8.74,-8.739 0,-4.79 -3.95,-8.656 -8.74,-8.656 z m 0,12.522 c -2.101,0 -3.781,-1.766 -3.781,-3.866 0,-2.102 1.68,-3.781 3.781,-3.781 2.101,0 3.866,1.68 3.866,3.781 0,2.101 -1.765,3.866 -3.866,3.866 z" /><path
         style="fill:#f9e494"
         inkscape:connector-curvature="0"
         id="path11"
         d="m 159.215,708.074 c -4.79,0 -8.655,3.864 -8.655,8.655 0,4.79 3.865,8.739 8.655,8.739 4.79,0 8.74,-3.949 8.74,-8.739 0,-4.791 -3.95,-8.655 -8.74,-8.655 z m 0,12.52 c -2.101,0 -3.781,-1.764 -3.781,-3.865 0,-2.101 1.68,-3.781 3.781,-3.781 2.101,0 3.866,1.68 3.866,3.781 0,2.101 -1.765,3.865 -3.866,3.865 z" /><path
         style="fill:#f9e494"
         inkscape:connector-curvature="0"
         id="path13"
         d="m 323.585,846.98 c -4.79,0 -8.656,3.866 -8.656,8.656 0,4.789 3.866,8.739 8.656,8.739 4.79,0 8.739,-3.95 8.739,-8.739 -0.001,-4.79 -3.95,-8.656 -8.739,-8.656 z m 0,12.522 c -2.101,0 -3.781,-1.766 -3.781,-3.866 0,-2.102 1.68,-3.781 3.781,-3.781 2.101,0 3.865,1.68 3.865,3.781 0,2.101 -1.765,3.866 -3.865,3.866 z" /><path
         style="fill:#f9e494"
         inkscape:connector-curvature="0"
         id="path15"
         d="m 323.585,725.468 c 4.79,0 8.739,-3.949 8.739,-8.739 0,-4.791 -3.949,-8.655 -8.739,-8.655 -4.79,0 -8.656,3.864 -8.656,8.655 0,4.79 3.866,8.739 8.656,8.739 z m 0,-12.52 c 2.101,0 3.865,1.68 3.865,3.781 0,2.101 -1.765,3.865 -3.865,3.865 -2.101,0 -3.781,-1.764 -3.781,-3.865 0,-2.101 1.68,-3.781 3.781,-3.781 z" /></g><rect
       x="256.73856"
       y="1152.5712"
       width="3.5437276"
       height="3.0399806"
       id="rect1485"
       style="fill:#e5e5e3" /><g
       transform="matrix(0,-1,1,0,0,0)"
       style="color:#000000;font-style:normal;font-variant:normal;font-weight:bold;font-stretch:normal;font-size:8.58532143px;line-height:80.00000119%;font-family:Chathura;-inkscape-font-specification:'Chathura, Bold';text-align:center;letter-spacing:0.22896074px;word-spacing:0px;writing-mode:lr-tb;text-anchor:middle;display:inline;overflow:visible;visibility:visible;fill:#f9f9f9;fill-opacity:1;fill-rule:nonzero;stroke:none;stroke-width:1px;stroke-linecap:butt;stroke-linejoin:miter;stroke-opacity:1;marker:none;enable-background:accumulate"
       id="text5881"><path
         d="m -1034.8056,269.60602 -0.069,0 q -0.1545,0 -0.1545,-0.15454 l 0,-2.38672 -0.7556,1.73424 q -0.043,0.10302 -0.1717,0.10302 l -0.077,0 q -0.1288,0 -0.1631,-0.10302 l -0.7641,-1.75141 0,2.40389 q 0,0.0515 -0.034,0.10303 -0.034,0.0515 -0.1116,0.0515 l -0.069,0 q -0.1631,0 -0.1631,-0.15454 l 0,-3.15081 q 0,-0.0687 0.034,-0.11161 0.043,-0.0515 0.1288,-0.0515 l 0.1288,0 q 0.1116,0 0.1374,0.0944 l 0.9186,2.09482 0.9015,-2.09482 q 0.034,-0.0944 0.1459,-0.0944 l 0.1374,0 q 0.086,0 0.1116,0.0601 0.034,0.0515 0.034,0.10302 l 0,3.15081 q 0,0.0515 -0.034,0.10303 -0.034,0.0515 -0.1116,0.0515 z"
         style=""
         id="path7802" /><path
         d="m -1032.306,269.60602 -0.052,0 q -0.086,0 -0.1288,-0.0944 -0.1888,0.0944 -0.3691,0.0944 l -0.3091,0 q -0.3091,0 -0.4894,-0.19746 -0.1717,-0.19747 -0.1717,-0.52371 l 0,-1.08175 q 0,-0.32624 0.1717,-0.5237 0.1803,-0.19747 0.4894,-0.19747 l 0.8585,0 q 0.1374,0 0.1374,0.13737 l 0,2.24077 q 0,0.14595 -0.1374,0.14595 z m -0.3434,-2.18926 q -0.01,0 -0.086,0 -0.077,0 -0.1718,0 -0.094,0 -0.1717,0 -0.077,0 -0.086,0 -0.3434,0 -0.3434,0.38634 l 0,1.07317 q 0,0.39492 0.3434,0.39492 l 0.3005,0 q 0.3777,0 0.3777,-0.36917 0,-0.56663 0,-0.82419 0.01,-0.25756 0.01,-0.352 0,-0.10302 -0.017,-0.19746 -0.01,-0.0944 -0.1545,-0.11161 z"
         style=""
         id="path7804" /><path
         d="m -1029.8804,269.60602 -0.052,0 q -0.052,0 -0.077,-0.0172 -0.026,-0.0172 -0.052,-0.0859 -0.094,0.0601 -0.1889,0.0859 -0.086,0.0172 -0.1802,0.0172 l -0.3091,0 q -0.3091,0 -0.4894,-0.18888 -0.1717,-0.19746 -0.1717,-0.55804 l 0,-1.09893 q 0,-0.35199 0.1717,-0.54087 0.1803,-0.19746 0.4894,-0.19746 l 0.3091,0 q 0.094,0 0.1802,0.0258 0.086,0.0172 0.1889,0.0773 l 0,-0.84995 q 0,-0.0515 0.026,-0.0944 0.026,-0.0515 0.103,-0.0515 l 0.052,0 q 0.1374,0 0.1374,0.14595 l 0,3.18516 q 0,0.14595 -0.1374,0.14595 z m -0.1803,-1.86302 q 0,-0.37775 -0.3777,-0.37775 l -0.3005,0 q -0.3434,0 -0.3434,0.39492 l 0,1.09034 q 0,0.40351 0.3434,0.40351 l 0.3005,0 q 0.3777,0 0.3777,-0.36917 l 0,-1.14185 z"
         style=""
         id="path7806" /><path
         d="m -1027.3616,268.53285 -1.2448,0 0,0.34342 q 0,0.39492 0.3434,0.39492 l 0.8671,0 q 0.1374,0 0.1374,0.13737 l 0,0.0601 q 0,0.0687 -0.052,0.10303 -0.043,0.0343 -0.086,0.0343 l -0.8671,0 q -0.3091,0 -0.4894,-0.19746 -0.1717,-0.19747 -0.1717,-0.52371 l 0,-1.08175 q 0,-0.32624 0.1717,-0.5237 0.1803,-0.19747 0.4894,-0.19747 l 0.3692,0 q 0.3176,0 0.4893,0.19747 0.1717,0.19746 0.1717,0.5237 l 0,0.57522 q 0,0.0515 -0.034,0.10302 -0.026,0.0515 -0.094,0.0515 z m -0.1888,-0.72975 q 0,-0.38634 -0.3434,-0.38634 l -0.3692,0 q -0.3434,0 -0.3434,0.38634 l 0,0.39493 1.056,0 0,-0.39493 z"
         style=""
         id="path7808" /><path
         d="m -1024.4092,266.81579 -0.2404,0 q -0.017,0 -0.026,-0.0515 -0.01,-0.0601 -0.01,-0.10303 l 0,-0.37775 q 0,-0.0515 0.01,-0.0944 0.01,-0.0515 0.026,-0.0515 l 0.2404,0 q 0.026,0 0.034,0.0515 0.01,0.0429 0.01,0.0944 l 0,0.37775 q 0,0.0429 -0.01,0.10303 -0.01,0.0515 -0.034,0.0515 z m 0,2.79023 -0.2404,0 q -0.017,0 -0.026,-0.0515 -0.01,-0.0515 -0.01,-0.0944 l 0,-2.29228 q 0,-0.0515 0.01,-0.0944 0.01,-0.0515 0.026,-0.0515 l 0.2404,0 q 0.026,0 0.034,0.0515 0.01,0.0429 0.01,0.0944 l 0,2.29228 q 0,0.0429 -0.01,0.0944 -0.01,0.0515 -0.034,0.0515 z"
         style=""
         id="path7810" /><path
         d="m -1022.0213,269.60602 -0.06,0 q -0.1288,0 -0.1288,-0.14595 l 0,-1.65697 q 0,-0.38634 -0.3348,-0.38634 l -0.3091,0 q -0.3691,0 -0.3691,0.36917 l 0,1.67414 q 0,0.14595 -0.1288,0.14595 l -0.06,0 q -0.069,0 -0.103,-0.0429 -0.026,-0.0515 -0.026,-0.10302 l 0,-2.24077 q 0,-0.0429 0.026,-0.0858 0.034,-0.0515 0.103,-0.0515 l 0.06,0 q 0.077,0 0.1288,0.0944 0.1545,-0.0944 0.3691,-0.0944 l 0.3091,0 q 0.3005,0 0.4808,0.19747 0.1803,0.19746 0.1803,0.5237 l 0,1.65697 q 0,0.14595 -0.1374,0.14595 z"
         style=""
         id="path7812" /><path
         d="m -1018.3056,269.60602 -0.146,0 q -0.3005,0 -0.4894,-0.19746 -0.1803,-0.19747 -0.1803,-0.52371 l 0,-1.49384 -0.1974,0 q -0.043,0 -0.086,-0.0344 -0.043,-0.0343 -0.043,-0.10302 l 0,-0.0601 q 0,-0.14595 0.1288,-0.14595 l 0.1974,0 0,-0.2919 q 0,-0.0515 0.034,-0.10302 0.034,-0.0515 0.103,-0.0515 l 0.06,0 q 0.069,0 0.094,0.0601 0.026,0.0515 0.026,0.0944 l 0,0.2919 0.455,0 q 0.1288,0 0.1288,0.14595 l 0,0.0601 q 0,0.0687 -0.043,0.10302 -0.043,0.0344 -0.086,0.0344 l -0.455,0 0,1.49384 q 0,0.37776 0.352,0.37776 l 0.146,0 q 0.1287,0 0.1287,0.13736 l 0,0.0687 q 0,0.0687 -0.043,0.10303 -0.043,0.0343 -0.086,0.0343 z"
         style=""
         id="path7814" /><path
         d="m -1015.9686,269.60602 -0.06,0 q -0.1288,0 -0.1288,-0.14595 l 0,-1.6999 q 0,-0.39492 -0.3348,-0.39492 l -0.3091,0 q -0.3691,0 -0.3691,0.37775 l 0,1.71707 q 0,0.14595 -0.1288,0.14595 l -0.06,0 q -0.069,0 -0.103,-0.0515 -0.026,-0.0515 -0.026,-0.0944 l 0,-3.18516 q 0,-0.0515 0.026,-0.0944 0.034,-0.0515 0.103,-0.0515 l 0.06,0 q 0.1288,0 0.1288,0.14595 l 0,0.83278 q 0.1974,-0.0858 0.3691,-0.0858 l 0.3091,0 q 0.3005,0 0.4808,0.19746 0.1803,0.18888 0.1803,0.54087 l 0,1.6999 q 0,0.14595 -0.1374,0.14595 z"
         style=""
         id="path7816" /><path
         d="m -1013.5013,268.53285 -1.2448,0 0,0.34342 q 0,0.39492 0.3434,0.39492 l 0.8671,0 q 0.1373,0 0.1373,0.13737 l 0,0.0601 q 0,0.0687 -0.052,0.10303 -0.043,0.0343 -0.086,0.0343 l -0.8671,0 q -0.3091,0 -0.4894,-0.19746 -0.1717,-0.19747 -0.1717,-0.52371 l 0,-1.08175 q 0,-0.32624 0.1717,-0.5237 0.1803,-0.19747 0.4894,-0.19747 l 0.3691,0 q 0.3177,0 0.4894,0.19747 0.1717,0.19746 0.1717,0.5237 l 0,0.57522 q 0,0.0515 -0.034,0.10302 -0.026,0.0515 -0.095,0.0515 z m -0.1889,-0.72975 q 0,-0.38634 -0.3434,-0.38634 l -0.3691,0 q -0.3434,0 -0.3434,0.38634 l 0,0.39493 1.0559,0 0,-0.39493 z"
         style=""
         id="path7818" /><path
         d="m -1009.5101,269.60602 -0.5237,0 q -0.3434,0 -0.5409,-0.20605 -0.1888,-0.21463 -0.1888,-0.60097 l 0,-2.49833 q 0,-0.0429 0.026,-0.10302 0.034,-0.0601 0.1288,-0.0601 l 0.052,0 q 0.094,0 0.1202,0.0601 0.034,0.0601 0.034,0.10302 l 0,2.48974 q 0,0.43785 0.3692,0.43785 l 0.5237,0 q 0.3606,0 0.3606,-0.43785 l 0,-2.48974 q 0,-0.0687 0.034,-0.11161 0.043,-0.0515 0.1202,-0.0515 l 0.069,0 q 0.077,0 0.1116,0.0515 0.034,0.0429 0.034,0.10302 l 0,2.50692 q 0,0.38634 -0.1975,0.60097 -0.1889,0.20605 -0.5323,0.20605 z"
         style=""
         id="path7820" /><path
         d="m -1005.911,269.60602 -0.06,0 q -0.1288,0 -0.1631,-0.10303 l -0.9616,-1.52818 -0.4035,0.54087 0,0.9358 q 0,0.0429 -0.043,0.10303 -0.034,0.0515 -0.1116,0.0515 l -0.06,0 q -0.069,0 -0.1202,-0.0429 -0.043,-0.0429 -0.043,-0.11161 l 0,-3.15081 q 0,-0.0687 0.034,-0.11161 0.043,-0.0515 0.1288,-0.0515 l 0.06,0 q 0.094,0 0.1202,0.0601 0.034,0.0515 0.034,0.10302 l 0,1.60545 1.1934,-1.66555 q 0.077,-0.10302 0.1631,-0.10302 l 0.094,0 q 0.052,0 0.077,0.0343 0.034,0.0258 0.043,0.0687 0.017,0.0343 0.01,0.0773 -0.01,0.0429 -0.026,0.0601 l -0.9101,1.27921 1.0646,1.71706 q 0.043,0.0687 0.017,0.15454 -0.017,0.0773 -0.1374,0.0773 z"
         style=""
         id="path7822" /></g><rect
       style="opacity:1;fill:none;fill-opacity:1;stroke:#000000;stroke-width:0.27239177;stroke-linecap:butt;stroke-linejoin:round;stroke-miterlimit:4;stroke-dasharray:none;stroke-dashoffset:3.5433073;stroke-opacity:1"
       id="rect1860"
       width="313.15527"
       height="208.43236"
       x="254.2457"
       y="980.9455" /></g></svg>