# Blender v2.79 (sub 0) OBJ File: ''
# www.blender.org
mtllib testobj.mtl
o Body5
v -0.377880 0.149325 -0.208989
v -0.991866 0.141946 -0.192089
v -0.395433 1.616355 -0.206112
v -1.009419 1.608975 -0.189212
v -0.380474 0.149479 -0.303186
v -0.398027 1.616508 -0.300308
v -1.062147 0.141286 -0.284423
v -1.079700 1.608315 -0.281545
v -1.051038 0.140628 0.118887
v -1.068591 1.607657 0.121764
v -0.118116 0.151841 0.093208
v 1.072464 1.633391 0.062832
v 0.177203 0.155390 0.085079
v 1.090017 0.166361 0.059954
v 1.078908 0.167019 -0.343355
v 1.061355 1.634049 -0.340478
v 0.392849 0.158774 -0.324471
v 0.375296 1.625803 -0.321594
v 0.395444 0.158620 -0.230275
v 0.377891 1.625649 -0.227397
v 0.997408 0.165855 -0.246844
v 0.979855 1.632884 -0.243967
v 1.003414 0.165499 -0.028816
v 0.985861 1.632529 -0.025939
v -0.985861 0.141590 0.025939
v -1.003414 1.608619 0.028816
v -1.049151 -0.017078 0.118577
v -1.060260 -0.016420 -0.284732
v -0.116229 -0.005865 0.092899
v 0.131676 0.154796 0.110033
v 0.179090 -0.002316 0.084770
v 0.133563 -0.002909 0.109724
v 0.082262 0.154174 0.125962
v 0.084149 -0.003532 0.125652
v 0.032619 -0.004161 0.131985
v 0.030732 0.153545 0.132295
v -0.019181 -0.004774 0.128496
v -0.021068 0.152932 0.128806
v -0.071283 0.152357 0.115619
v -0.069396 -0.005349 0.115310
v 1.091904 0.008656 0.059645
v 1.080795 0.009314 -0.343664
v 0.233747 -0.000867 -0.320350
v 0.231861 0.156839 -0.320040
v -0.194991 0.151708 -0.308291
v -0.157970 0.152229 -0.347996
v -0.193104 -0.005997 -0.308600
v -0.156083 -0.005476 -0.348305
v -0.113857 0.152819 -0.379633
v -0.111970 -0.004887 -0.379942
v -0.064378 0.153455 -0.401963
v -0.062491 -0.004251 -0.402273
v -0.011471 0.154112 -0.414113
v -0.009584 -0.003594 -0.414423
v 0.044680 -0.002942 -0.415916
v 0.042793 0.154764 -0.415607
v 0.096289 0.155386 -0.406386
v 0.098176 -0.002320 -0.406695
v 0.146922 0.155953 -0.386811
v 0.148809 -0.001752 -0.387120
v 0.192711 0.156444 -0.357648
v 0.194597 -0.001262 -0.357957
v -0.057581 -0.006944 1.000617
v -0.059468 0.150762 1.000926
v 0.056616 -0.005582 1.003170
v 0.054729 0.152123 1.003479
v 0.170500 -0.004202 0.994339
v 0.168613 0.153503 0.994648
v 0.282938 -0.002818 0.974212
v 0.281051 0.154888 0.974522
v 0.392813 -0.001442 0.942989
v 0.390926 0.156264 0.943298
v 0.499034 -0.000088 0.900980
v 0.497147 0.157617 0.901290
v 0.600544 0.001229 0.848603
v 0.598657 0.158935 0.848913
v 0.696335 0.002497 0.786379
v 0.694448 0.160203 0.786688
v 0.785454 0.003704 0.714925
v 0.783567 0.161409 0.715234
v 0.867016 0.004836 0.634952
v 0.865129 0.162542 0.635261
v 0.940211 0.005884 0.547254
v 0.938324 0.163590 0.547563
v 1.004310 0.006837 0.452704
v 1.002423 0.164542 0.453013
v 1.058678 0.007684 0.352241
v 1.056791 0.165390 0.352550
v 1.102772 0.008418 0.246863
v 1.100885 0.166124 0.247172
v 1.136156 0.009032 0.137618
v 1.134269 0.166738 0.137927
v 1.158498 0.009519 0.025591
v 1.156611 0.167225 0.025900
v 1.169575 0.009875 -0.088104
v 1.167688 0.167580 -0.087795
v 1.169277 0.010095 -0.202337
v 1.167390 0.167801 -0.202028
v 1.157608 0.010178 -0.315974
v 1.155721 0.167884 -0.315664
v 1.134683 0.010124 -0.427884
v 1.132796 0.167829 -0.427574
v 1.100730 0.009931 -0.536955
v 1.098843 0.167637 -0.536646
v 1.056086 0.009603 -0.642104
v 1.054199 0.167309 -0.641794
v 1.001196 0.009143 -0.742285
v 0.999309 0.166849 -0.741975
v 0.936605 0.008555 -0.836502
v 0.934718 0.166261 -0.836193
v 0.862954 0.007845 -0.923820
v 0.861067 0.165551 -0.923511
v 0.780976 0.007020 -1.003371
v 0.779089 0.164726 -1.003062
v 0.691485 0.006089 -1.074364
v 0.689598 0.163794 -1.074054
v 0.595372 0.005060 -1.136093
v 0.593485 0.162766 -1.135784
v 0.493590 0.003944 -1.187945
v 0.491703 0.161649 -1.187635
v 0.387152 0.002752 -1.229404
v 0.385265 0.160457 -1.229095
v 0.277115 0.001495 -1.260059
v 0.275228 0.159201 -1.259750
v 0.164573 0.000187 -1.279605
v 0.162686 0.157893 -1.279296
v 0.050645 -0.001160 -1.287848
v 0.048758 0.156546 -1.287538
v -0.063537 -0.002532 -1.284705
v -0.065424 0.155173 -1.284395
v -0.176839 -0.003917 -1.270208
v -0.178726 0.153789 -1.269898
v -0.288134 -0.005299 -1.244501
v -0.290021 0.152407 -1.244191
v -0.396317 -0.006665 -1.207839
v -0.398204 0.151041 -1.207530
v -0.500311 -0.008002 -1.160588
v -0.502198 0.149704 -1.160278
v -0.599085 -0.009296 -1.103215
v -0.600972 0.148409 -1.102906
v -0.691655 -0.010535 -1.036293
v -0.693542 0.147171 -1.035984
v -0.777102 -0.011706 -0.960485
v -0.778989 0.145999 -0.960176
v -0.854577 -0.012798 -0.876545
v -0.856463 0.144908 -0.876236
v -0.923309 -0.013799 -0.785308
v -0.925196 0.143907 -0.784999
v -0.982616 -0.014700 -0.687680
v -0.984503 0.143005 -0.687371
v -1.031908 -0.015492 -0.584632
v -1.033795 0.142214 -0.584322
v -1.070696 -0.016167 -0.477186
v -1.072583 0.141539 -0.476877
v -1.098593 -0.016718 -0.366413
v -1.100480 0.140988 -0.366103
v -1.115323 -0.017140 -0.253411
v -1.117210 0.140566 -0.253102
v -1.120720 -0.017428 -0.139305
v -1.122607 0.140277 -0.138996
v -1.114729 -0.017580 -0.025229
v -1.116616 0.140125 -0.024919
v -1.097410 -0.017595 0.087685
v -1.099297 0.140111 0.087994
v -1.068936 -0.017471 0.198313
v -1.070822 0.140235 0.198622
v -1.029588 -0.017210 0.305556
v -1.031475 0.140495 0.305865
v -0.979760 -0.016816 0.408349
v -0.981647 0.140890 0.408658
v -0.919944 -0.016291 0.505669
v -0.921831 0.141415 0.505978
v -0.850737 -0.015641 0.596550
v -0.852624 0.142064 0.596859
v -0.772826 -0.014873 0.680088
v -0.774713 0.142833 0.680398
v -0.686985 -0.013994 0.755454
v -0.688872 0.143712 0.755763
v -0.594068 -0.013012 0.821897
v -0.595954 0.144693 0.822206
v -0.494997 -0.011938 0.878758
v -0.496884 0.145767 0.879067
v -0.390757 -0.010783 0.925472
v -0.392644 0.146923 0.925781
v -0.282385 -0.009557 0.961574
v -0.284272 0.148149 0.961883
v -0.170957 -0.008273 0.986706
v -0.172844 0.149433 0.987015
vt 0.151012 0.620264
vt 0.108090 0.479149
vt 0.094788 0.741481
vt 0.091156 0.463156
vt 0.163343 0.579567
vt 0.101250 0.492126
vt 0.163343 0.452243
vt 0.094833 0.454009
vt 0.144038 0.368427
vt 0.082923 0.413471
vt 0.098390 0.274373
vt 0.051434 0.188659
vt 0.086553 0.198877
vt 0.051306 0.067742
vt 0.047818 0.102073
vt 0.056288 0.165953
vt 0.042972 0.113680
vt 0.053766 0.160321
vt 0.045135 0.111984
vt 0.057536 0.157727
vt 0.040412 0.111139
vt 0.059342 0.167779
vt 0.030581 0.103019
vt 0.071499 0.178100
vt 0.042946 0.531308
vt 0.095489 0.430806
vt 0.000072 0.504030
vt 0.033523 0.000072
vt 0.109847 0.999928
vt 0.048388 0.109127
vt 0.273757 0.785207
vt 0.255619 0.779536
vt 0.190996 0.846779
vt 0.199619 0.843236
vt 0.216803 0.378813
vt 0.212522 0.400008
vt 0.202634 0.320687
vt 0.207277 0.323610
vt 0.206729 0.330701
vt 0.205908 0.335598
vt 0.209795 0.341286
vt 0.205646 0.348152
vt 0.206249 0.360911
vt 0.212158 0.351719
vt 0.207612 0.373673
vt 0.214020 0.361735
vt 0.215501 0.370976
vt 0.209700 0.386677
vt 0.191233 0.104657
vt 0.192527 0.100473
vt 0.164924 0.095587
vt 0.163488 0.088072
vt 0.187652 0.305181
vt 0.186858 0.325898
vt 0.183868 0.328873
vt 0.197978 0.483728
vt 0.206585 0.479591
vt 0.194181 0.477881
vt 0.205515 0.464864
vt 0.190463 0.471390
vt 0.204399 0.448936
vt 0.186889 0.447232
vt 0.203092 0.431417
vt 0.184385 0.423218
vt 0.201533 0.412941
vt 0.199604 0.394113
vt 0.182940 0.399027
vt 0.182517 0.374782
vt 0.197299 0.375370
vt 0.183327 0.350220
vt 0.194498 0.357286
vt 0.183186 0.338998
vt 0.191045 0.340780
vt 0.198673 0.510280
vt 0.211690 0.412938
vt 0.210604 0.395618
vt 0.201883 0.414773
vt 0.201055 0.397430
vt 0.209563 0.378647
vt 0.200201 0.380433
vt 0.208509 0.362110
vt 0.199381 0.363829
vt 0.207501 0.345776
vt 0.198520 0.347437
vt 0.206464 0.329816
vt 0.197712 0.331352
vt 0.205481 0.313907
vt 0.196840 0.315349
vt 0.204469 0.297837
vt 0.195960 0.299161
vt 0.203522 0.281364
vt 0.194928 0.282547
vt 0.202543 0.264039
vt 0.193759 0.265016
vt 0.201363 0.245356
vt 0.192524 0.246037
vt 0.199593 0.224725
vt 0.191435 0.225143
vt 0.196310 0.201386
vt 0.191026 0.202284
vt 0.197646 0.165111
vt 0.184643 0.169683
vt 0.193899 0.125991
vt 0.181497 0.133581
vt 0.189021 0.091691
vt 0.180068 0.104547
vt 0.183753 0.054785
vt 0.177014 0.083477
vt 0.169977 0.000072
vt 0.175696 0.067507
vt 0.166712 0.067923
vt 0.175712 0.086922
vt 0.167113 0.110813
vt 0.177929 0.115146
vt 0.169448 0.152204
vt 0.178453 0.153228
vt 0.177929 0.186229
vt 0.183679 0.186115
vt 0.176892 0.211622
vt 0.185320 0.212833
vt 0.176585 0.234598
vt 0.185658 0.235803
vt 0.176454 0.255514
vt 0.185555 0.256366
vt 0.176282 0.275096
vt 0.185334 0.275388
vt 0.176171 0.293998
vt 0.185132 0.293371
vt 0.176276 0.312883
vt 0.184930 0.310419
vt 0.177106 0.332507
vt 0.186968 0.329989
vt 0.178101 0.352311
vt 0.188672 0.349800
vt 0.179214 0.372480
vt 0.190109 0.370093
vt 0.180274 0.392731
vt 0.191430 0.390460
vt 0.181334 0.413235
vt 0.192630 0.411119
vt 0.182324 0.433927
vt 0.193754 0.431926
vt 0.183296 0.454816
vt 0.194786 0.452900
vt 0.184266 0.475929
vt 0.195721 0.474024
vt 0.185257 0.497437
vt 0.196565 0.495280
vt 0.186422 0.519215
vt 0.197240 0.516277
vt 0.188016 0.541702
vt 0.197786 0.536709
vt 0.190639 0.564868
vt 0.201940 0.559237
vt 0.193683 0.588788
vt 0.205755 0.583070
vt 0.196662 0.614187
vt 0.209558 0.608498
vt 0.199560 0.642016
vt 0.213554 0.636354
vt 0.202458 0.673373
vt 0.217888 0.667690
vt 0.205563 0.709904
vt 0.222647 0.703829
vt 0.209470 0.754434
vt 0.227836 0.745995
vt 0.209481 0.801536
vt 0.236125 0.784366
vt 0.215298 0.861808
vt 0.239365 0.828308
vt 0.232769 0.925157
vt 0.231733 0.855096
vt 0.241591 0.853444
vt 0.220146 0.833027
vt 0.244107 0.801320
vt 0.209033 0.800881
vt 0.239872 0.743750
vt 0.205204 0.750435
vt 0.233062 0.697942
vt 0.207372 0.704659
vt 0.228772 0.654371
vt 0.207434 0.658359
vt 0.225526 0.617266
vt 0.207369 0.620111
vt 0.222953 0.585247
vt 0.207159 0.587585
vt 0.220840 0.557145
vt 0.206819 0.559243
vt 0.219057 0.532036
vt 0.206368 0.534020
vt 0.217518 0.509198
vt 0.205819 0.511145
vt 0.216176 0.488052
vt 0.205167 0.490025
vt 0.215009 0.468211
vt 0.204371 0.470064
vt 0.213895 0.449186
vt 0.203552 0.451027
vt 0.212770 0.430762
vt 0.202721 0.432595
vt 0.254047 0.807899
vt 0.190996 0.788135
vt 0.178557 0.110903
vt 0.179096 0.093395
vn 0.0275 -0.0016 0.9996
vn 0.9995 0.0120 -0.0275
vn -0.0275 0.0016 -0.9996
vn -0.9995 -0.0120 0.0275
vn -0.0120 0.9999 0.0020
vn 0.0120 -0.9999 -0.0020
vn -0.4806 -0.0040 -0.8769
vn -0.3068 -0.0018 -0.9518
vn -0.1220 0.0005 -0.9925
vn 0.0672 0.0028 -0.9977
vn 0.2539 0.0049 -0.9672
vn 0.4316 0.0069 -0.9020
vn 0.7313 0.0074 0.6820
vn 0.5827 0.0054 0.8126
vn 0.4113 0.0031 0.9115
vn 0.2238 0.0008 0.9746
vn -0.1698 -0.0040 0.9855
vn -0.3605 -0.0061 0.9327
vn -0.5371 -0.0081 0.8435
vn -0.6927 -0.0097 0.7212
vn -0.0223 -0.0022 0.9997
vn 0.0773 -0.0010 0.9970
vn 0.1762 0.0002 0.9844
vn 0.2733 0.0014 0.9619
vn 0.3677 0.0026 0.9299
vn 0.4585 0.0037 0.8887
vn 0.5447 0.0049 0.8386
vn 0.6255 0.0060 0.7802
vn 0.7000 0.0070 0.7141
vn 0.7001 0.0070 0.7141
vn 0.7677 0.0079 0.6408
vn 0.8276 0.0088 0.5612
vn 0.8794 0.0096 0.4760
vn 0.9224 0.0103 0.3861
vn 0.9563 0.0109 0.2923
vn 0.9806 0.0113 0.1956
vn 0.9952 0.0117 0.0970
vn 0.9999 0.0120 -0.0026
vn 0.9947 0.0121 -0.1021
vn 0.9796 0.0121 -0.2007
vn 0.9547 0.0120 -0.2972
vn 0.9204 0.0118 -0.3908
vn 0.8769 0.0114 -0.4805
vn 0.8247 0.0110 -0.5655
vn 0.7643 0.0104 -0.6448
vn 0.6963 0.0097 -0.7177
vn 0.6214 0.0090 -0.7834
vn 0.5403 0.0081 -0.8414
vn 0.4539 0.0072 -0.8910
vn 0.3629 0.0062 -0.9318
vn 0.2683 0.0051 -0.9633
vn 0.1711 0.0040 -0.9853
vn 0.0721 0.0028 -0.9974
vn -0.1269 0.0004 -0.9919
vn -0.2250 -0.0008 -0.9743
vn -0.3209 -0.0020 -0.9471
vn -0.4136 -0.0032 -0.9104
vn -0.5022 -0.0043 -0.8647
vn -0.5858 -0.0054 -0.8104
vn -0.6636 -0.0065 -0.7481
vn -0.7348 -0.0075 -0.6783
vn -0.7986 -0.0084 -0.6017
vn -0.8546 -0.0092 -0.5192
vn -0.9020 -0.0099 -0.4316
vn -0.9405 -0.0106 -0.3396
vn -0.9696 -0.0111 -0.2443
vn -0.9891 -0.0115 -0.1465
vn -0.9988 -0.0119 -0.0473
vn -0.9986 -0.0121 0.0524
vn -0.9884 -0.0121 0.1516
vn -0.9684 -0.0121 0.2493
vn -0.9387 -0.0119 0.3444
vn -0.8998 -0.0116 0.4362
vn -0.8519 -0.0112 0.5236
vn -0.7955 -0.0107 0.6059
vn -0.7312 -0.0101 0.6821
vn -0.6597 -0.0094 0.7515
vn -0.5816 -0.0086 0.8134
vn -0.4977 -0.0077 0.8673
vn -0.4089 -0.0067 0.9126
vn -0.3160 -0.0056 0.9487
vn -0.2200 -0.0045 0.9755
vn -0.1218 -0.0034 0.9926
vn -0.1217 -0.0034 0.9926
usemtl Material.001
s off
f 1/1/1 3/2/1 2/3/1
f 3/2/1 4/4/1 2/3/1
f 5/5/2 6/6/2 1/1/2
f 6/6/2 3/2/2 1/1/2
f 7/7/3 8/8/3 5/5/3
f 8/8/3 6/6/3 5/5/3
f 9/9/4 10/10/4 7/7/4
f 10/10/4 8/8/4 7/7/4
f 9/9/1 11/11/1 10/10/1
f 11/11/1 12/12/1 10/10/1
f 11/11/1 13/13/1 12/12/1
f 13/13/1 14/14/1 12/12/1
f 15/15/2 16/16/2 14/14/2
f 16/16/2 12/12/2 14/14/2
f 17/17/3 18/18/3 15/15/3
f 18/18/3 16/16/3 15/15/3
f 19/19/4 20/20/4 17/17/4
f 20/20/4 18/18/4 17/17/4
f 21/21/1 22/22/1 19/19/1
f 22/22/1 20/20/1 19/19/1
f 23/23/4 24/24/4 21/21/4
f 24/24/4 22/22/4 21/21/4
f 25/25/3 26/26/3 23/23/3
f 26/26/3 24/24/3 23/23/3
f 2/3/2 4/4/2 25/25/2
f 4/4/2 26/26/2 25/25/2
f 26/26/5 4/4/5 10/10/5
f 4/4/5 8/8/5 10/10/5
f 4/4/5 6/6/5 8/8/5
f 26/26/5 10/10/5 24/24/5
f 10/10/5 12/12/5 24/24/5
f 12/12/5 22/22/5 24/24/5
f 12/12/5 16/16/5 22/22/5
f 16/16/5 18/18/5 22/22/5
f 18/18/5 20/20/5 22/22/5
f 6/6/5 4/4/5 3/2/5
f 2/3/6 25/25/6 9/27/6
f 25/25/6 11/11/6 9/27/6
f 25/25/6 23/23/6 11/11/6
f 23/23/6 13/13/6 11/11/6
f 23/23/6 14/28/6 13/13/6
f 1/1/6 2/3/6 5/5/6
f 2/3/6 7/29/6 5/5/6
f 2/3/6 9/27/6 7/29/6
f 23/23/6 21/21/6 14/28/6
f 21/21/6 15/30/6 14/28/6
f 21/21/6 17/17/6 15/30/6
f 17/17/6 21/21/6 19/19/6
f 9/31/2 27/32/2 7/33/2
f 27/32/2 28/34/2 7/33/2
f 11/35/3 29/36/3 9/31/3
f 29/36/3 27/32/3 9/31/3
f 13/37/7 31/38/7 30/39/7
f 31/38/7 32/40/7 30/39/7
f 32/40/8 33/41/8 30/39/8
f 32/40/8 34/42/8 33/41/8
f 34/42/9 35/43/9 33/41/9
f 35/43/9 36/44/9 33/41/9
f 35/43/10 37/45/10 36/44/10
f 37/45/10 38/46/10 36/44/10
f 37/45/11 39/47/11 38/46/11
f 37/45/11 40/48/11 39/47/11
f 40/48/12 11/35/12 39/47/12
f 40/48/12 29/36/12 11/35/12
f 14/49/3 41/50/3 13/37/3
f 41/50/3 31/38/3 13/37/3
f 15/51/4 42/52/4 14/49/4
f 42/52/4 41/50/4 14/49/4
f 15/51/1 17/53/1 42/52/1
f 17/53/1 43/54/1 42/52/1
f 17/53/1 44/55/1 43/54/1
f 45/56/13 47/57/13 46/58/13
f 47/57/13 48/59/13 46/58/13
f 48/59/14 49/60/14 46/58/14
f 48/59/14 50/61/14 49/60/14
f 50/61/15 51/62/15 49/60/15
f 50/61/15 52/63/15 51/62/15
f 52/63/16 53/64/16 51/62/16
f 52/63/16 54/65/16 53/64/16
f 54/65/1 55/66/1 53/64/1
f 55/66/1 56/67/1 53/64/1
f 55/66/17 57/68/17 56/67/17
f 55/66/17 58/69/17 57/68/17
f 58/69/18 59/70/18 57/68/18
f 58/69/18 60/71/18 59/70/18
f 60/71/19 61/72/19 59/70/19
f 60/71/19 62/73/19 61/72/19
f 62/73/20 44/55/20 61/72/20
f 62/73/20 43/54/20 44/55/20
f 45/56/1 5/74/1 47/57/1
f 5/74/1 28/34/1 47/57/1
f 5/74/1 7/33/1 28/34/1
f 63/75/21 65/76/21 64/77/21
f 65/76/21 66/78/21 64/77/21
f 65/76/22 67/79/22 66/78/22
f 67/79/22 68/80/22 66/78/22
f 67/79/23 69/81/23 68/80/23
f 69/81/23 70/82/23 68/80/23
f 69/81/24 71/83/24 70/82/24
f 71/83/24 72/84/24 70/82/24
f 71/83/25 73/85/25 72/84/25
f 73/85/25 74/86/25 72/84/25
f 73/85/26 75/87/26 74/86/26
f 75/87/26 76/88/26 74/86/26
f 75/87/27 77/89/27 76/88/27
f 77/89/27 78/90/27 76/88/27
f 77/89/28 79/91/28 78/90/28
f 79/91/28 80/92/28 78/90/28
f 79/91/29 81/93/29 80/92/29
f 81/93/30 82/94/30 80/92/30
f 81/93/31 83/95/31 82/94/31
f 83/95/31 84/96/31 82/94/31
f 83/95/32 85/97/32 84/96/32
f 85/97/32 86/98/32 84/96/32
f 85/97/33 87/99/33 86/98/33
f 87/99/33 88/100/33 86/98/33
f 87/99/34 89/101/34 88/100/34
f 89/101/34 90/102/34 88/100/34
f 89/101/35 91/103/35 90/102/35
f 91/103/35 92/104/35 90/102/35
f 91/103/36 93/105/36 92/104/36
f 93/105/36 94/106/36 92/104/36
f 93/105/37 95/107/37 94/106/37
f 95/107/37 96/108/37 94/106/37
f 95/107/38 97/109/38 96/108/38
f 97/109/38 98/110/38 96/108/38
f 97/109/39 99/111/39 98/110/39
f 99/111/39 100/112/39 98/110/39
f 99/111/40 101/113/40 100/112/40
f 101/113/40 102/114/40 100/112/40
f 101/113/41 103/115/41 102/114/41
f 103/115/41 104/116/41 102/114/41
f 103/115/42 105/117/42 104/116/42
f 105/117/42 106/118/42 104/116/42
f 105/117/43 107/119/43 106/118/43
f 107/119/43 108/120/43 106/118/43
f 107/119/44 109/121/44 108/120/44
f 109/121/44 110/122/44 108/120/44
f 109/121/45 111/123/45 110/122/45
f 111/123/45 112/124/45 110/122/45
f 111/123/46 113/125/46 112/124/46
f 113/125/46 114/126/46 112/124/46
f 113/125/47 115/127/47 114/126/47
f 115/127/47 116/128/47 114/126/47
f 115/127/48 117/129/48 116/128/48
f 117/129/48 118/130/48 116/128/48
f 117/129/49 119/131/49 118/130/49
f 119/131/49 120/132/49 118/130/49
f 119/131/50 121/133/50 120/132/50
f 121/133/50 122/134/50 120/132/50
f 121/133/51 123/135/51 122/134/51
f 123/135/51 124/136/51 122/134/51
f 123/135/52 125/137/52 124/136/52
f 125/137/52 126/138/52 124/136/52
f 125/137/53 127/139/53 126/138/53
f 127/139/53 128/140/53 126/138/53
f 127/139/3 129/141/3 128/140/3
f 129/141/3 130/142/3 128/140/3
f 129/141/54 131/143/54 130/142/54
f 131/143/54 132/144/54 130/142/54
f 131/143/55 133/145/55 132/144/55
f 133/145/55 134/146/55 132/144/55
f 133/145/56 135/147/56 134/146/56
f 135/147/56 136/148/56 134/146/56
f 135/147/57 137/149/57 136/148/57
f 137/149/57 138/150/57 136/148/57
f 137/149/58 139/151/58 138/150/58
f 139/151/58 140/152/58 138/150/58
f 139/151/59 141/153/59 140/152/59
f 141/153/59 142/154/59 140/152/59
f 141/153/60 143/155/60 142/154/60
f 143/155/60 144/156/60 142/154/60
f 143/155/61 145/157/61 144/156/61
f 145/157/61 146/158/61 144/156/61
f 145/157/62 147/159/62 146/158/62
f 147/159/62 148/160/62 146/158/62
f 147/159/63 149/161/63 148/160/63
f 149/161/63 150/162/63 148/160/63
f 149/161/64 151/163/64 150/162/64
f 151/163/64 152/164/64 150/162/64
f 151/163/65 153/165/65 152/164/65
f 153/165/65 154/166/65 152/164/65
f 153/165/66 155/167/66 154/166/66
f 155/167/66 156/168/66 154/166/66
f 155/167/67 157/169/67 156/168/67
f 157/169/67 158/170/67 156/168/67
f 157/169/68 159/171/68 158/170/68
f 159/171/68 160/172/68 158/170/68
f 159/171/69 161/173/69 160/172/69
f 161/173/69 162/174/69 160/172/69
f 161/173/70 163/175/70 162/174/70
f 163/175/70 164/176/70 162/174/70
f 163/175/71 165/177/71 164/176/71
f 165/177/71 166/178/71 164/176/71
f 165/177/72 167/179/72 166/178/72
f 167/179/72 168/180/72 166/178/72
f 167/179/73 169/181/73 168/180/73
f 169/181/73 170/182/73 168/180/73
f 169/181/74 171/183/74 170/182/74
f 171/183/74 172/184/74 170/182/74
f 171/183/75 173/185/75 172/184/75
f 173/185/75 174/186/75 172/184/75
f 173/185/76 175/187/76 174/186/76
f 175/187/76 176/188/76 174/186/76
f 175/187/77 177/189/77 176/188/77
f 177/189/77 178/190/77 176/188/77
f 177/189/78 179/191/78 178/190/78
f 179/191/78 180/192/78 178/190/78
f 179/191/79 181/193/79 180/192/79
f 181/193/79 182/194/79 180/192/79
f 181/193/80 183/195/80 182/194/80
f 183/195/80 184/196/80 182/194/80
f 183/195/81 185/197/81 184/196/81
f 185/197/81 186/198/81 184/196/81
f 185/197/82 187/199/82 186/198/82
f 187/199/82 188/200/82 186/198/82
f 187/199/83 63/75/83 188/200/83
f 63/75/84 64/77/84 188/200/84
f 45/56/5 46/58/5 5/74/5
f 46/58/5 49/60/5 5/74/5
f 49/60/5 140/152/5 5/74/5
f 49/60/5 138/150/5 140/152/5
f 7/201/5 5/74/5 154/166/5
f 5/74/5 152/164/5 154/166/5
f 5/74/5 150/162/5 152/164/5
f 9/202/5 7/201/5 162/174/5
f 7/201/5 160/172/5 162/174/5
f 7/201/5 158/170/5 160/172/5
f 11/35/5 9/202/5 168/180/5
f 9/202/5 166/178/5 168/180/5
f 9/202/5 164/176/5 166/178/5
f 39/47/5 11/35/5 182/194/5
f 11/35/5 180/192/5 182/194/5
f 11/35/5 178/190/5 180/192/5
f 38/46/5 39/47/5 186/198/5
f 39/47/5 184/196/5 186/198/5
f 39/47/5 182/194/5 184/196/5
f 36/44/5 38/46/5 64/77/5
f 38/46/5 188/200/5 64/77/5
f 38/46/5 186/198/5 188/200/5
f 33/41/5 36/44/5 68/80/5
f 36/44/5 66/78/5 68/80/5
f 36/44/5 64/77/5 66/78/5
f 30/39/5 33/41/5 72/84/5
f 33/41/5 70/82/5 72/84/5
f 33/41/5 68/80/5 70/82/5
f 13/37/5 30/39/5 76/88/5
f 30/39/5 74/86/5 76/88/5
f 30/39/5 72/84/5 74/86/5
f 14/203/5 13/37/5 88/100/5
f 13/37/5 86/98/5 88/100/5
f 13/37/5 84/96/5 86/98/5
f 15/204/5 14/203/5 96/108/5
f 14/203/5 94/106/5 96/108/5
f 14/203/5 92/104/5 94/106/5
f 17/53/5 15/204/5 104/116/5
f 15/204/5 102/114/5 104/116/5
f 15/204/5 100/112/5 102/114/5
f 44/55/5 17/53/5 61/72/5
f 17/53/5 59/70/5 61/72/5
f 17/53/5 118/130/5 59/70/5
f 118/130/5 120/132/5 59/70/5
f 120/132/5 122/134/5 59/70/5
f 122/134/5 57/68/5 59/70/5
f 122/134/5 124/136/5 57/68/5
f 124/136/5 126/138/5 57/68/5
f 126/138/5 56/67/5 57/68/5
f 126/138/5 128/140/5 56/67/5
f 128/140/5 130/142/5 56/67/5
f 130/142/5 53/64/5 56/67/5
f 130/142/5 132/144/5 53/64/5
f 132/144/5 51/62/5 53/64/5
f 132/144/5 134/146/5 51/62/5
f 134/146/5 136/148/5 51/62/5
f 136/148/5 49/60/5 51/62/5
f 136/148/5 138/150/5 49/60/5
f 178/190/5 11/35/5 176/188/5
f 11/35/5 174/186/5 176/188/5
f 11/35/5 172/184/5 174/186/5
f 172/184/5 11/35/5 170/182/5
f 11/35/5 168/180/5 170/182/5
f 164/176/5 9/202/5 162/174/5
f 158/170/5 7/201/5 156/168/5
f 7/201/5 154/166/5 156/168/5
f 150/162/5 5/74/5 148/160/5
f 5/74/5 146/158/5 148/160/5
f 5/74/5 144/156/5 146/158/5
f 144/156/5 5/74/5 142/154/5
f 5/74/5 140/152/5 142/154/5
f 118/130/5 17/53/5 116/128/5
f 17/53/5 114/126/5 116/128/5
f 17/53/5 112/124/5 114/126/5
f 112/124/5 17/53/5 110/122/5
f 17/53/5 108/120/5 110/122/5
f 17/53/5 106/118/5 108/120/5
f 106/118/5 17/53/5 104/116/5
f 100/112/5 15/204/5 98/110/5
f 15/204/5 96/108/5 98/110/5
f 92/104/5 14/203/5 90/102/5
f 14/203/5 88/100/5 90/102/5
f 84/96/5 13/37/5 82/94/5
f 13/37/5 80/92/5 82/94/5
f 13/37/5 78/90/5 80/92/5
f 78/90/5 13/37/5 76/88/5
f 47/57/6 28/34/6 153/165/6
f 28/34/6 155/167/6 153/165/6
f 28/34/6 157/169/6 155/167/6
f 48/59/6 47/57/6 143/155/6
f 47/57/6 145/157/6 143/155/6
f 47/57/6 147/159/6 145/157/6
f 50/61/6 48/59/6 139/151/6
f 48/59/6 141/153/6 139/151/6
f 48/59/6 143/155/6 141/153/6
f 52/63/6 50/61/6 135/147/6
f 50/61/6 137/149/6 135/147/6
f 50/61/6 139/151/6 137/149/6
f 54/65/6 52/63/6 131/143/6
f 52/63/6 133/145/6 131/143/6
f 52/63/6 135/147/6 133/145/6
f 131/143/6 129/141/6 54/65/6
f 129/141/6 55/66/6 54/65/6
f 129/141/6 127/139/6 55/66/6
f 127/139/6 125/137/6 55/66/6
f 125/137/6 58/69/6 55/66/6
f 125/137/6 123/135/6 58/69/6
f 123/135/6 121/133/6 58/69/6
f 121/133/6 60/71/6 58/69/6
f 121/133/6 119/131/6 60/71/6
f 119/131/6 117/129/6 60/71/6
f 117/129/6 62/73/6 60/71/6
f 117/129/6 115/127/6 62/73/6
f 115/127/6 113/125/6 62/73/6
f 113/125/6 43/54/6 62/73/6
f 113/125/6 111/123/6 43/54/6
f 111/123/6 109/121/6 43/54/6
f 109/121/6 107/119/6 43/54/6
f 107/119/6 105/117/6 43/54/6
f 105/117/6 42/52/6 43/54/6
f 105/117/6 103/115/6 42/52/6
f 103/115/6 101/113/6 42/52/6
f 101/113/6 99/111/6 42/52/6
f 99/111/6 97/109/6 42/52/6
f 97/109/6 95/107/6 42/52/6
f 95/107/6 41/50/6 42/52/6
f 95/107/6 93/105/6 41/50/6
f 93/105/6 91/103/6 41/50/6
f 91/103/6 89/101/6 41/50/6
f 89/101/6 87/99/6 41/50/6
f 87/99/6 31/38/6 41/50/6
f 87/99/6 85/97/6 31/38/6
f 85/97/6 83/95/6 31/38/6
f 83/95/6 81/93/6 31/38/6
f 81/93/6 79/91/6 31/38/6
f 79/91/6 77/89/6 31/38/6
f 77/89/6 75/87/6 31/38/6
f 75/87/6 32/40/6 31/38/6
f 75/87/6 73/85/6 32/40/6
f 73/85/6 71/83/6 32/40/6
f 71/83/6 34/42/6 32/40/6
f 71/83/6 69/81/6 34/42/6
f 69/81/6 67/79/6 34/42/6
f 67/79/6 35/43/6 34/42/6
f 67/79/6 65/76/6 35/43/6
f 65/76/6 63/75/6 35/43/6
f 63/75/6 37/45/6 35/43/6
f 63/75/6 187/199/6 37/45/6
f 187/199/6 185/197/6 37/45/6
f 185/197/6 40/48/6 37/45/6
f 185/197/6 183/195/6 40/48/6
f 183/195/6 181/193/6 40/48/6
f 181/193/6 29/36/6 40/48/6
f 181/193/6 179/191/6 29/36/6
f 179/191/6 177/189/6 29/36/6
f 177/189/6 175/187/6 29/36/6
f 175/187/6 173/185/6 29/36/6
f 173/185/6 171/183/6 29/36/6
f 171/183/6 169/181/6 29/36/6
f 169/181/6 167/179/6 29/36/6
f 167/179/6 27/32/6 29/36/6
f 167/179/6 165/177/6 27/32/6
f 165/177/6 163/175/6 27/32/6
f 163/175/6 161/173/6 27/32/6
f 161/173/6 28/34/6 27/32/6
f 161/173/6 159/171/6 28/34/6
f 159/171/6 157/169/6 28/34/6
f 147/159/6 47/57/6 149/161/6
f 47/57/6 151/163/6 149/161/6
f 47/57/6 153/165/6 151/163/6
